%TF.GenerationSoftware,KiCad,Pcbnew,8.0.4*%
%TF.CreationDate,2025-01-26T22:49:23-05:00*%
%TF.ProjectId,catkeeb_devboard,6361746b-6565-4625-9f64-6576626f6172,rev?*%
%TF.SameCoordinates,Original*%
%TF.FileFunction,Copper,L1,Top*%
%TF.FilePolarity,Positive*%
%FSLAX46Y46*%
G04 Gerber Fmt 4.6, Leading zero omitted, Abs format (unit mm)*
G04 Created by KiCad (PCBNEW 8.0.4) date 2025-01-26 22:49:23*
%MOMM*%
%LPD*%
G01*
G04 APERTURE LIST*
G04 Aperture macros list*
%AMRoundRect*
0 Rectangle with rounded corners*
0 $1 Rounding radius*
0 $2 $3 $4 $5 $6 $7 $8 $9 X,Y pos of 4 corners*
0 Add a 4 corners polygon primitive as box body*
4,1,4,$2,$3,$4,$5,$6,$7,$8,$9,$2,$3,0*
0 Add four circle primitives for the rounded corners*
1,1,$1+$1,$2,$3*
1,1,$1+$1,$4,$5*
1,1,$1+$1,$6,$7*
1,1,$1+$1,$8,$9*
0 Add four rect primitives between the rounded corners*
20,1,$1+$1,$2,$3,$4,$5,0*
20,1,$1+$1,$4,$5,$6,$7,0*
20,1,$1+$1,$6,$7,$8,$9,0*
20,1,$1+$1,$8,$9,$2,$3,0*%
%AMRotRect*
0 Rectangle, with rotation*
0 The origin of the aperture is its center*
0 $1 length*
0 $2 width*
0 $3 Rotation angle, in degrees counterclockwise*
0 Add horizontal line*
21,1,$1,$2,0,0,$3*%
G04 Aperture macros list end*
%TA.AperFunction,SMDPad,CuDef*%
%ADD10RoundRect,0.250000X-0.300000X-0.300000X0.300000X-0.300000X0.300000X0.300000X-0.300000X0.300000X0*%
%TD*%
%TA.AperFunction,ComponentPad*%
%ADD11C,1.700000*%
%TD*%
%TA.AperFunction,ComponentPad*%
%ADD12O,1.700000X1.700000*%
%TD*%
%TA.AperFunction,ComponentPad*%
%ADD13R,1.700000X1.700000*%
%TD*%
%TA.AperFunction,SMDPad,CuDef*%
%ADD14RoundRect,0.140000X-0.140000X-0.170000X0.140000X-0.170000X0.140000X0.170000X-0.140000X0.170000X0*%
%TD*%
%TA.AperFunction,SMDPad,CuDef*%
%ADD15RoundRect,0.135000X-0.185000X0.135000X-0.185000X-0.135000X0.185000X-0.135000X0.185000X0.135000X0*%
%TD*%
%TA.AperFunction,SMDPad,CuDef*%
%ADD16R,1.000000X0.750000*%
%TD*%
%TA.AperFunction,SMDPad,CuDef*%
%ADD17RoundRect,0.140000X-0.021213X0.219203X-0.219203X0.021213X0.021213X-0.219203X0.219203X-0.021213X0*%
%TD*%
%TA.AperFunction,SMDPad,CuDef*%
%ADD18RoundRect,0.135000X0.185000X-0.135000X0.185000X0.135000X-0.185000X0.135000X-0.185000X-0.135000X0*%
%TD*%
%TA.AperFunction,SMDPad,CuDef*%
%ADD19RoundRect,0.050000X0.238649X0.309359X-0.309359X-0.238649X-0.238649X-0.309359X0.309359X0.238649X0*%
%TD*%
%TA.AperFunction,SMDPad,CuDef*%
%ADD20RoundRect,0.050000X-0.238649X0.309359X-0.309359X0.238649X0.238649X-0.309359X0.309359X-0.238649X0*%
%TD*%
%TA.AperFunction,HeatsinkPad*%
%ADD21RotRect,3.200000X3.200000X225.000000*%
%TD*%
%TA.AperFunction,SMDPad,CuDef*%
%ADD22RoundRect,0.140000X0.219203X0.021213X0.021213X0.219203X-0.219203X-0.021213X-0.021213X-0.219203X0*%
%TD*%
%TA.AperFunction,SMDPad,CuDef*%
%ADD23RoundRect,0.135000X-0.135000X-0.185000X0.135000X-0.185000X0.135000X0.185000X-0.135000X0.185000X0*%
%TD*%
%TA.AperFunction,SMDPad,CuDef*%
%ADD24RoundRect,0.140000X-0.170000X0.140000X-0.170000X-0.140000X0.170000X-0.140000X0.170000X0.140000X0*%
%TD*%
%TA.AperFunction,SMDPad,CuDef*%
%ADD25RoundRect,0.140000X0.170000X-0.140000X0.170000X0.140000X-0.170000X0.140000X-0.170000X-0.140000X0*%
%TD*%
%TA.AperFunction,SMDPad,CuDef*%
%ADD26RoundRect,0.150000X0.500000X-0.150000X0.500000X0.150000X-0.500000X0.150000X-0.500000X-0.150000X0*%
%TD*%
%TA.AperFunction,SMDPad,CuDef*%
%ADD27RoundRect,0.075000X0.575000X-0.075000X0.575000X0.075000X-0.575000X0.075000X-0.575000X-0.075000X0*%
%TD*%
%TA.AperFunction,ComponentPad*%
%ADD28O,2.100000X1.000000*%
%TD*%
%TA.AperFunction,ComponentPad*%
%ADD29O,1.600000X1.000000*%
%TD*%
%TA.AperFunction,SMDPad,CuDef*%
%ADD30RoundRect,0.135000X-0.226274X-0.035355X-0.035355X-0.226274X0.226274X0.035355X0.035355X0.226274X0*%
%TD*%
%TA.AperFunction,SMDPad,CuDef*%
%ADD31RoundRect,0.135000X0.135000X0.185000X-0.135000X0.185000X-0.135000X-0.185000X0.135000X-0.185000X0*%
%TD*%
%TA.AperFunction,SMDPad,CuDef*%
%ADD32RoundRect,0.125000X-0.262500X-0.125000X0.262500X-0.125000X0.262500X0.125000X-0.262500X0.125000X0*%
%TD*%
%TA.AperFunction,HeatsinkPad*%
%ADD33R,3.400000X4.000000*%
%TD*%
%TA.AperFunction,SMDPad,CuDef*%
%ADD34RoundRect,0.243750X-0.456250X0.243750X-0.456250X-0.243750X0.456250X-0.243750X0.456250X0.243750X0*%
%TD*%
%TA.AperFunction,SMDPad,CuDef*%
%ADD35R,1.400000X1.200000*%
%TD*%
%TA.AperFunction,SMDPad,CuDef*%
%ADD36RoundRect,0.150000X0.150000X-0.512500X0.150000X0.512500X-0.150000X0.512500X-0.150000X-0.512500X0*%
%TD*%
%TA.AperFunction,SMDPad,CuDef*%
%ADD37RoundRect,0.140000X0.021213X-0.219203X0.219203X-0.021213X-0.021213X0.219203X-0.219203X0.021213X0*%
%TD*%
%TA.AperFunction,SMDPad,CuDef*%
%ADD38RoundRect,0.140000X0.140000X0.170000X-0.140000X0.170000X-0.140000X-0.170000X0.140000X-0.170000X0*%
%TD*%
%TA.AperFunction,ComponentPad*%
%ADD39C,2.200000*%
%TD*%
%TA.AperFunction,ViaPad*%
%ADD40C,0.600000*%
%TD*%
%TA.AperFunction,Conductor*%
%ADD41C,0.200000*%
%TD*%
%TA.AperFunction,Conductor*%
%ADD42C,0.250000*%
%TD*%
%TA.AperFunction,Conductor*%
%ADD43C,0.300000*%
%TD*%
G04 APERTURE END LIST*
D10*
%TO.P,D7,1,K*%
%TO.N,+3V3*%
X83000000Y-60450000D03*
%TO.P,D7,2,A*%
%TO.N,Net-(D7-A)*%
X85800000Y-60450000D03*
%TD*%
D11*
%TO.P,J6,1,Pin_1*%
%TO.N,+5V*%
X89360000Y-63960000D03*
D12*
%TO.P,J6,2,Pin_2*%
X86820000Y-63960000D03*
D13*
%TO.P,J6,3,Pin_3*%
%TO.N,GND*%
X84280000Y-63960000D03*
D12*
%TO.P,J6,4,Pin_4*%
%TO.N,+3V3*%
X81740000Y-63960000D03*
%TO.P,J6,5,Pin_5*%
X79200000Y-63960000D03*
%TO.P,J6,6,Pin_6*%
%TO.N,GPIO26_ADC3*%
X76660000Y-63960000D03*
%TO.P,J6,7,Pin_7*%
%TO.N,GPIO26_ADC2*%
X74120000Y-63960000D03*
D13*
%TO.P,J6,8,Pin_8*%
%TO.N,GND*%
X71580000Y-63960000D03*
D12*
%TO.P,J6,9,Pin_9*%
%TO.N,GPIO26_ADC1*%
X69040000Y-63960000D03*
%TO.P,J6,10,Pin_10*%
%TO.N,GPIO26_ADC0*%
X66500000Y-63960000D03*
%TO.P,J6,11,Pin_11*%
%TO.N,RUN*%
X63960000Y-63960000D03*
%TO.P,J6,12,Pin_12*%
%TO.N,GPIO22*%
X61420000Y-63960000D03*
D13*
%TO.P,J6,13,Pin_13*%
%TO.N,GND*%
X58880000Y-63960000D03*
D12*
%TO.P,J6,14,Pin_14*%
%TO.N,GPIO21*%
X56340000Y-63960000D03*
%TO.P,J6,15,Pin_15*%
%TO.N,GPIO20*%
X53800000Y-63960000D03*
%TO.P,J6,16,Pin_16*%
%TO.N,GPIO19*%
X51260000Y-63960000D03*
%TO.P,J6,17,Pin_17*%
%TO.N,GPIO18*%
X48720000Y-63960000D03*
D13*
%TO.P,J6,18,Pin_18*%
%TO.N,GND*%
X46180000Y-63960000D03*
D12*
%TO.P,J6,19,Pin_19*%
%TO.N,GPIO17*%
X43640000Y-63960000D03*
%TO.P,J6,20,Pin_20*%
%TO.N,GPIO16*%
X41100000Y-63960000D03*
%TD*%
%TO.P,J2,20,Pin_20*%
%TO.N,GPIO15*%
X41100000Y-46180000D03*
%TO.P,J2,19,Pin_19*%
%TO.N,GPIO14*%
X43640000Y-46180000D03*
D13*
%TO.P,J2,18,Pin_18*%
%TO.N,GND*%
X46180000Y-46180000D03*
D12*
%TO.P,J2,17,Pin_17*%
%TO.N,GPIO13*%
X48720000Y-46180000D03*
%TO.P,J2,16,Pin_16*%
%TO.N,GPIO12*%
X51260000Y-46180000D03*
%TO.P,J2,15,Pin_15*%
%TO.N,GPIO11*%
X53800000Y-46180000D03*
%TO.P,J2,14,Pin_14*%
%TO.N,GPIO10*%
X56340000Y-46180000D03*
D13*
%TO.P,J2,13,Pin_13*%
%TO.N,GND*%
X58880000Y-46180000D03*
D12*
%TO.P,J2,12,Pin_12*%
%TO.N,GPIO9*%
X61420000Y-46180000D03*
%TO.P,J2,11,Pin_11*%
%TO.N,GPIO8*%
X63960000Y-46180000D03*
%TO.P,J2,10,Pin_10*%
%TO.N,GPIO7*%
X66500000Y-46180000D03*
%TO.P,J2,9,Pin_9*%
%TO.N,GPIO6*%
X69040000Y-46180000D03*
D13*
%TO.P,J2,8,Pin_8*%
%TO.N,GND*%
X71580000Y-46180000D03*
D12*
%TO.P,J2,7,Pin_7*%
%TO.N,GPIO5*%
X74120000Y-46180000D03*
%TO.P,J2,6,Pin_6*%
%TO.N,GPIO4*%
X76660000Y-46180000D03*
%TO.P,J2,5,Pin_5*%
%TO.N,GPIO3*%
X79200000Y-46180000D03*
%TO.P,J2,4,Pin_4*%
%TO.N,GPIO2*%
X81740000Y-46180000D03*
D13*
%TO.P,J2,3,Pin_3*%
%TO.N,GND*%
X84280000Y-46180000D03*
D12*
%TO.P,J2,2,Pin_2*%
%TO.N,GPIO1*%
X86820000Y-46180000D03*
D11*
%TO.P,J2,1,Pin_1*%
%TO.N,GPIO0*%
X89360000Y-46180000D03*
%TD*%
D14*
%TO.P,C10,1*%
%TO.N,+1V1*%
X67950000Y-59300000D03*
%TO.P,C10,2*%
%TO.N,GND*%
X68910000Y-59300000D03*
%TD*%
D15*
%TO.P,R7,1*%
%TO.N,Net-(J1-CC1)*%
X90690000Y-56980000D03*
%TO.P,R7,2*%
%TO.N,GND*%
X90690000Y-58000000D03*
%TD*%
D16*
%TO.P,SW1,1,1*%
%TO.N,GND*%
X78520000Y-54230000D03*
X72520000Y-54230000D03*
%TO.P,SW1,2,2*%
%TO.N,Net-(R3-Pad1)*%
X78520000Y-50480000D03*
X72520000Y-50480000D03*
%TD*%
D17*
%TO.P,C4,1*%
%TO.N,+3V3*%
X52129411Y-57930589D03*
%TO.P,C4,2*%
%TO.N,GND*%
X51450589Y-58609411D03*
%TD*%
D18*
%TO.P,R6,1*%
%TO.N,Net-(D5-K)*%
X90770000Y-51490000D03*
%TO.P,R6,2*%
%TO.N,GND*%
X90770000Y-50470000D03*
%TD*%
D14*
%TO.P,C2,1*%
%TO.N,+3V3*%
X67960000Y-60320000D03*
%TO.P,C2,2*%
%TO.N,GND*%
X68920000Y-60320000D03*
%TD*%
D19*
%TO.P,U1,1,IOVDD*%
%TO.N,+3V3*%
X61589157Y-54489169D03*
%TO.P,U1,2,GPIO0*%
%TO.N,GPIO0*%
X61306314Y-54206326D03*
%TO.P,U1,3,GPIO1*%
%TO.N,GPIO1*%
X61023472Y-53923484D03*
%TO.P,U1,4,GPIO2*%
%TO.N,GPIO2*%
X60740629Y-53640641D03*
%TO.P,U1,5,GPIO3*%
%TO.N,GPIO3*%
X60457786Y-53357798D03*
%TO.P,U1,6,GPIO4*%
%TO.N,GPIO4*%
X60174944Y-53074956D03*
%TO.P,U1,7,GPIO5*%
%TO.N,GPIO5*%
X59892101Y-52792113D03*
%TO.P,U1,8,GPIO6*%
%TO.N,GPIO6*%
X59609258Y-52509270D03*
%TO.P,U1,9,GPIO7*%
%TO.N,GPIO7*%
X59326415Y-52226427D03*
%TO.P,U1,10,IOVDD*%
%TO.N,+3V3*%
X59043573Y-51943585D03*
%TO.P,U1,11,GPIO8*%
%TO.N,GPIO8*%
X58760730Y-51660742D03*
%TO.P,U1,12,GPIO9*%
%TO.N,GPIO9*%
X58477887Y-51377899D03*
%TO.P,U1,13,GPIO10*%
%TO.N,GPIO10*%
X58195045Y-51095057D03*
%TO.P,U1,14,GPIO11*%
%TO.N,GPIO11*%
X57912202Y-50812214D03*
D20*
%TO.P,U1,15,GPIO12*%
%TO.N,GPIO12*%
X56727798Y-50812214D03*
%TO.P,U1,16,GPIO13*%
%TO.N,GPIO13*%
X56444955Y-51095057D03*
%TO.P,U1,17,GPIO14*%
%TO.N,GPIO14*%
X56162113Y-51377899D03*
%TO.P,U1,18,GPIO15*%
%TO.N,GPIO15*%
X55879270Y-51660742D03*
%TO.P,U1,19,TESTEN*%
%TO.N,GND*%
X55596427Y-51943585D03*
%TO.P,U1,20,XIN*%
%TO.N,XIN*%
X55313585Y-52226427D03*
%TO.P,U1,21,XOUT*%
%TO.N,XOUT*%
X55030742Y-52509270D03*
%TO.P,U1,22,IOVDD*%
%TO.N,+3V3*%
X54747899Y-52792113D03*
%TO.P,U1,23,DVDD*%
%TO.N,+1V1*%
X54465056Y-53074956D03*
%TO.P,U1,24,SWCLK*%
%TO.N,SWCLK*%
X54182214Y-53357798D03*
%TO.P,U1,25,SWD*%
%TO.N,SWD*%
X53899371Y-53640641D03*
%TO.P,U1,26,RUN*%
%TO.N,RUN*%
X53616528Y-53923484D03*
%TO.P,U1,27,GPIO16*%
%TO.N,GPIO16*%
X53333686Y-54206326D03*
%TO.P,U1,28,GPIO17*%
%TO.N,GPIO17*%
X53050843Y-54489169D03*
D19*
%TO.P,U1,29,GPIO18*%
%TO.N,GPIO18*%
X53050843Y-55673573D03*
%TO.P,U1,30,GPIO19*%
%TO.N,GPIO19*%
X53333686Y-55956416D03*
%TO.P,U1,31,GPIO20*%
%TO.N,GPIO20*%
X53616528Y-56239258D03*
%TO.P,U1,32,GPIO21*%
%TO.N,GPIO21*%
X53899371Y-56522101D03*
%TO.P,U1,33,IOVDD*%
%TO.N,+3V3*%
X54182214Y-56804944D03*
%TO.P,U1,34,GPIO22*%
%TO.N,GPIO22*%
X54465056Y-57087786D03*
%TO.P,U1,35,GPIO23*%
%TO.N,GPIO23*%
X54747899Y-57370629D03*
%TO.P,U1,36,GPIO24*%
%TO.N,GPIO24*%
X55030742Y-57653472D03*
%TO.P,U1,37,GPIO25*%
%TO.N,GPIO25*%
X55313585Y-57936315D03*
%TO.P,U1,38,GPIO26_ADC0*%
%TO.N,GPIO26_ADC0*%
X55596427Y-58219157D03*
%TO.P,U1,39,GPIO27_ADC1*%
%TO.N,GPIO26_ADC1*%
X55879270Y-58502000D03*
%TO.P,U1,40,GPIO28_ADC2*%
%TO.N,GPIO26_ADC2*%
X56162113Y-58784843D03*
%TO.P,U1,41,GPIO29_ADC3*%
%TO.N,GPIO26_ADC3*%
X56444955Y-59067685D03*
%TO.P,U1,42,IOVDD*%
%TO.N,+3V3*%
X56727798Y-59350528D03*
D20*
%TO.P,U1,43,ADC_AVDD*%
X57912202Y-59350528D03*
%TO.P,U1,44,VREG_IN*%
X58195045Y-59067685D03*
%TO.P,U1,45,VREG_VOUT*%
%TO.N,+1V1*%
X58477887Y-58784843D03*
%TO.P,U1,46,USB_DM*%
%TO.N,Net-(U1-USB_DM)*%
X58760730Y-58502000D03*
%TO.P,U1,47,USB_DP*%
%TO.N,Net-(U1-USB_DP)*%
X59043573Y-58219157D03*
%TO.P,U1,48,USB_VDD*%
%TO.N,+3V3*%
X59326415Y-57936315D03*
%TO.P,U1,49,IOVDD*%
X59609258Y-57653472D03*
%TO.P,U1,50,DVDD*%
%TO.N,+1V1*%
X59892101Y-57370629D03*
%TO.P,U1,51,QSPI_SD3*%
%TO.N,QSPI_SD3*%
X60174944Y-57087786D03*
%TO.P,U1,52,QSPI_SCLK*%
%TO.N,QSPI_SCLK*%
X60457786Y-56804944D03*
%TO.P,U1,53,QSPI_SD0*%
%TO.N,QSPI_SD0*%
X60740629Y-56522101D03*
%TO.P,U1,54,QSPI_SD2*%
%TO.N,QSPI_SD2*%
X61023472Y-56239258D03*
%TO.P,U1,55,QSPI_SD1*%
%TO.N,QSPI_SD1*%
X61306314Y-55956416D03*
%TO.P,U1,56,QSPI_SS*%
%TO.N,QSPI_SS*%
X61589157Y-55673573D03*
D21*
%TO.P,U1,57,GND*%
%TO.N,GND*%
X57320000Y-55081371D03*
%TD*%
D22*
%TO.P,C5,1*%
%TO.N,+3V3*%
X52999411Y-51009411D03*
%TO.P,C5,2*%
%TO.N,GND*%
X52320589Y-50330589D03*
%TD*%
D17*
%TO.P,C1,1*%
%TO.N,+3V3*%
X58259411Y-60830589D03*
%TO.P,C1,2*%
%TO.N,GND*%
X57580589Y-61509411D03*
%TD*%
D15*
%TO.P,R3,1*%
%TO.N,Net-(R3-Pad1)*%
X71740000Y-56100000D03*
%TO.P,R3,2*%
%TO.N,QSPI_SS*%
X71740000Y-57120000D03*
%TD*%
D23*
%TO.P,R5,1*%
%TO.N,Net-(C16-Pad2)*%
X43170000Y-56990000D03*
%TO.P,R5,2*%
%TO.N,XOUT*%
X44190000Y-56990000D03*
%TD*%
D24*
%TO.P,C15,1*%
%TO.N,GND*%
X45520000Y-59690000D03*
%TO.P,C15,2*%
%TO.N,XIN*%
X45520000Y-60650000D03*
%TD*%
D25*
%TO.P,C13,1*%
%TO.N,Net-(D7-A)*%
X90690000Y-60550000D03*
%TO.P,C13,2*%
%TO.N,GND*%
X90690000Y-59590000D03*
%TD*%
D26*
%TO.P,J1,A1,GND*%
%TO.N,GND*%
X92450000Y-58350000D03*
%TO.P,J1,A4,VBUS*%
%TO.N,+5V*%
X92450000Y-57550000D03*
D27*
%TO.P,J1,A5,CC1*%
%TO.N,Net-(J1-CC1)*%
X92450000Y-56400000D03*
%TO.P,J1,A6,D+*%
%TO.N,D+*%
X92450000Y-55400000D03*
%TO.P,J1,A7,D-*%
%TO.N,D-*%
X92450000Y-54900000D03*
%TO.P,J1,A8,SBU1*%
%TO.N,unconnected-(J1-SBU1-PadA8)*%
X92450000Y-53900000D03*
D26*
%TO.P,J1,A9,VBUS*%
%TO.N,+5V*%
X92450000Y-52750000D03*
%TO.P,J1,A12,GND*%
%TO.N,GND*%
X92450000Y-51950000D03*
%TO.P,J1,B1,GND*%
X92450000Y-51950000D03*
%TO.P,J1,B4,VBUS*%
%TO.N,+5V*%
X92450000Y-52750000D03*
D27*
%TO.P,J1,B5,CC2*%
%TO.N,Net-(J1-CC2)*%
X92450000Y-53400000D03*
%TO.P,J1,B6,D+*%
%TO.N,D+*%
X92450000Y-54400000D03*
%TO.P,J1,B7,D-*%
%TO.N,D-*%
X92450000Y-55900000D03*
%TO.P,J1,B8,SBU2*%
%TO.N,unconnected-(J1-SBU2-PadB8)*%
X92450000Y-56900000D03*
D26*
%TO.P,J1,B9,VBUS*%
%TO.N,+5V*%
X92450000Y-57550000D03*
%TO.P,J1,B12,GND*%
%TO.N,GND*%
X92450000Y-58350000D03*
D28*
%TO.P,J1,S1,SHIELD*%
X93090000Y-59470000D03*
D29*
X97270000Y-59470000D03*
D28*
X93090000Y-50830000D03*
D29*
X97270000Y-50830000D03*
%TD*%
D14*
%TO.P,C9,1*%
%TO.N,+1V1*%
X58960000Y-61680000D03*
%TO.P,C9,2*%
%TO.N,GND*%
X59920000Y-61680000D03*
%TD*%
D30*
%TO.P,R1,1*%
%TO.N,Net-(U1-USB_DP)*%
X61439376Y-60079376D03*
%TO.P,R1,2*%
%TO.N,D+*%
X62160624Y-60800624D03*
%TD*%
D31*
%TO.P,R4,1*%
%TO.N,+3V3*%
X75940000Y-55712500D03*
%TO.P,R4,2*%
%TO.N,QSPI_SS*%
X74920000Y-55712500D03*
%TD*%
D22*
%TO.P,C11,1*%
%TO.N,+1V1*%
X52319411Y-51689411D03*
%TO.P,C11,2*%
%TO.N,GND*%
X51640589Y-51010589D03*
%TD*%
D32*
%TO.P,U3,1,~{CS}*%
%TO.N,QSPI_SS*%
X72985000Y-57172500D03*
%TO.P,U3,2,DO(IO1)*%
%TO.N,QSPI_SD1*%
X72985000Y-58442500D03*
%TO.P,U3,3,IO2*%
%TO.N,QSPI_SD2*%
X72985000Y-59712500D03*
%TO.P,U3,4,GND*%
%TO.N,GND*%
X72985000Y-60982500D03*
%TO.P,U3,5,DI(IO0)*%
%TO.N,QSPI_SD0*%
X78310000Y-60982500D03*
%TO.P,U3,6,CLK*%
%TO.N,QSPI_SCLK*%
X78310000Y-59712500D03*
%TO.P,U3,7,IO3*%
%TO.N,QSPI_SD3*%
X78310000Y-58442500D03*
%TO.P,U3,8,VCC*%
%TO.N,+3V3*%
X78310000Y-57172500D03*
D33*
%TO.P,U3,9*%
%TO.N,N/C*%
X75647500Y-59077500D03*
%TD*%
D17*
%TO.P,C8,1*%
%TO.N,+3V3*%
X56749411Y-61010589D03*
%TO.P,C8,2*%
%TO.N,GND*%
X56070589Y-61689411D03*
%TD*%
D34*
%TO.P,D5,1,K*%
%TO.N,Net-(D5-K)*%
X81150000Y-54102500D03*
%TO.P,D5,2,A*%
%TO.N,+5V*%
X81150000Y-55977500D03*
%TD*%
D30*
%TO.P,R2,1*%
%TO.N,Net-(U1-USB_DM)*%
X60739376Y-60769376D03*
%TO.P,R2,2*%
%TO.N,D-*%
X61460624Y-61490624D03*
%TD*%
D35*
%TO.P,Y1,1,1*%
%TO.N,XIN*%
X41620000Y-60250000D03*
%TO.P,Y1,2,2*%
%TO.N,GND*%
X43820000Y-60250000D03*
%TO.P,Y1,3,3*%
X43820000Y-58550000D03*
%TO.P,Y1,4,4*%
%TO.N,Net-(C16-Pad2)*%
X41620000Y-58550000D03*
%TD*%
D36*
%TO.P,U2,1,GND*%
%TO.N,GND*%
X87407500Y-60807500D03*
%TO.P,U2,2,VO*%
%TO.N,Net-(D7-A)*%
X89307500Y-60807500D03*
%TO.P,U2,3,VI*%
%TO.N,+5V*%
X88357500Y-58532500D03*
%TD*%
D25*
%TO.P,C14,1*%
%TO.N,+3V3*%
X79550000Y-57250000D03*
%TO.P,C14,2*%
%TO.N,GND*%
X79550000Y-56290000D03*
%TD*%
D14*
%TO.P,C12,1*%
%TO.N,+5V*%
X88550000Y-57010000D03*
%TO.P,C12,2*%
%TO.N,GND*%
X89510000Y-57010000D03*
%TD*%
D18*
%TO.P,R8,1*%
%TO.N,Net-(J1-CC2)*%
X90740000Y-53820000D03*
%TO.P,R8,2*%
%TO.N,GND*%
X90740000Y-52800000D03*
%TD*%
D17*
%TO.P,C3,1*%
%TO.N,+3V3*%
X55779411Y-60610589D03*
%TO.P,C3,2*%
%TO.N,GND*%
X55100589Y-61289411D03*
%TD*%
D37*
%TO.P,C6,1*%
%TO.N,+3V3*%
X60200589Y-49309411D03*
%TO.P,C6,2*%
%TO.N,GND*%
X60879411Y-48630589D03*
%TD*%
D14*
%TO.P,C7,1*%
%TO.N,+3V3*%
X69190000Y-56790000D03*
%TO.P,C7,2*%
%TO.N,GND*%
X70150000Y-56790000D03*
%TD*%
D38*
%TO.P,C17,1*%
%TO.N,+3V3*%
X68910000Y-61350000D03*
%TO.P,C17,2*%
%TO.N,GND*%
X67950000Y-61350000D03*
%TD*%
%TO.P,C16,1*%
%TO.N,GND*%
X42090000Y-56980000D03*
%TO.P,C16,2*%
%TO.N,Net-(C16-Pad2)*%
X41130000Y-56980000D03*
%TD*%
D39*
%TO.P,MX2,1,COL*%
%TO.N,GPIO24*%
X63341250Y-50000000D03*
%TO.P,MX2,2,ROW*%
%TO.N,GND*%
X69691250Y-52540000D03*
%TD*%
%TO.P,MX3,1,COL*%
%TO.N,GPIO25*%
X44291250Y-50000000D03*
%TO.P,MX3,2,ROW*%
%TO.N,GND*%
X50641250Y-52540000D03*
%TD*%
%TO.P,MX1,1,COL*%
%TO.N,GPIO23*%
X82391250Y-50000000D03*
%TO.P,MX1,2,ROW*%
%TO.N,GND*%
X88741250Y-52540000D03*
%TD*%
D40*
%TO.N,GND*%
X95300000Y-50850000D03*
X95250000Y-59400000D03*
X58900000Y-47600000D03*
X69000000Y-50250000D03*
X68000000Y-51250000D03*
X90500000Y-62000000D03*
X68500000Y-55500000D03*
%TO.N,GPIO26_ADC3*%
X52710000Y-60260000D03*
%TO.N,GPIO22*%
X51310000Y-61720000D03*
%TO.N,GND*%
X90500000Y-49000000D03*
X88500000Y-49000000D03*
X86500000Y-49000000D03*
X84500000Y-49000000D03*
X75000000Y-53000000D03*
X81000000Y-53000000D03*
X79000000Y-53000000D03*
X77000000Y-53000000D03*
X72000000Y-52500000D03*
X68500000Y-54000000D03*
X71000000Y-54000000D03*
X71000000Y-51000000D03*
X81000000Y-51500000D03*
X79000000Y-51500000D03*
X77000000Y-51500000D03*
X75000000Y-51500000D03*
X87500000Y-54500000D03*
X86500000Y-52500000D03*
X84500000Y-52500000D03*
X87000000Y-62000000D03*
X85000000Y-62000000D03*
X45000000Y-59000000D03*
X49000000Y-48000000D03*
X47000000Y-48000000D03*
X48580000Y-51970000D03*
X50562108Y-61117892D03*
X65240000Y-48830000D03*
X61590000Y-50760000D03*
%TO.N,+1V1*%
X57828453Y-58108453D03*
%TO.N,GND*%
X46220000Y-52000000D03*
X58010000Y-52970000D03*
%TO.N,XIN*%
X54460000Y-51090000D03*
%TO.N,GND*%
X56190000Y-52550000D03*
%TO.N,RUN*%
X54188575Y-54518600D03*
%TO.N,GPIO25*%
X49881570Y-54700000D03*
%TO.N,GND*%
X45870000Y-57810000D03*
X49380000Y-51070000D03*
%TO.N,GPIO25*%
X54490064Y-58476991D03*
%TO.N,GPIO24*%
X55635735Y-57044265D03*
%TO.N,+1V1*%
X55390763Y-54040760D03*
X59253360Y-56730000D03*
%TO.N,+3V3*%
X62950000Y-55840000D03*
X68850000Y-56820000D03*
X75420000Y-54940000D03*
X80106970Y-57925285D03*
X82062108Y-59902108D03*
%TO.N,XIN*%
X51410000Y-53960000D03*
%TO.N,XOUT*%
X44890000Y-52040000D03*
X53569997Y-50200003D03*
%TO.N,QSPI_SCLK*%
X79040000Y-59710000D03*
X63350000Y-58860000D03*
%TO.N,GPIO26_ADC0*%
X52345600Y-59425600D03*
%TO.N,GPIO26_ADC1*%
X53642288Y-60347243D03*
%TO.N,GPIO23*%
X53640449Y-58533524D03*
%TO.N,QSPI_SD3*%
X79010000Y-58510000D03*
X62540000Y-58750000D03*
%TO.N,GPIO26_ADC2*%
X54510735Y-60150735D03*
%TO.N,GPIO0*%
X62180000Y-53620000D03*
X66699265Y-51879265D03*
%TO.N,+5V*%
X87220000Y-58526714D03*
X82641753Y-56558247D03*
%TO.N,GND*%
X70820000Y-56800000D03*
X61620000Y-48150000D03*
X69450982Y-59289018D03*
X73447498Y-60930000D03*
X69830000Y-60920000D03*
X54610000Y-55440000D03*
X89680000Y-59510000D03*
X67230000Y-60920000D03*
X57390002Y-60150000D03*
X89520000Y-58000000D03*
%TD*%
D41*
%TO.N,+3V3*%
X82690000Y-60530000D02*
X82690000Y-60550000D01*
X82062108Y-59902108D02*
X82690000Y-60530000D01*
D42*
X82690000Y-60550000D02*
X83000000Y-60550000D01*
X83000000Y-60550000D02*
X83000000Y-62700000D01*
X83000000Y-62700000D02*
X81740000Y-63960000D01*
D41*
%TO.N,D-*%
X61460624Y-61490624D02*
X61870624Y-61490624D01*
X61870624Y-61490624D02*
X62740000Y-62360000D01*
X62740000Y-62360000D02*
X78755686Y-62360000D01*
X78755686Y-62360000D02*
X83285686Y-57830000D01*
X83285686Y-57830000D02*
X86165686Y-57830000D01*
X86165686Y-57830000D02*
X88095686Y-55900000D01*
X88095686Y-55900000D02*
X92450000Y-55900000D01*
%TO.N,D+*%
X92450000Y-55400000D02*
X88030000Y-55400000D01*
X88030000Y-55400000D02*
X86000000Y-57430000D01*
X63320000Y-61960000D02*
X62160624Y-60800624D01*
X86000000Y-57430000D02*
X83120000Y-57430000D01*
X78590000Y-61960000D02*
X63320000Y-61960000D01*
X83120000Y-57430000D02*
X78590000Y-61960000D01*
D43*
%TO.N,+5V*%
X82113506Y-56030000D02*
X81202500Y-56030000D01*
X82641753Y-56558247D02*
X82113506Y-56030000D01*
X81202500Y-56030000D02*
X81150000Y-55977500D01*
D41*
%TO.N,+3V3*%
X60268166Y-54866665D02*
X58666076Y-53264575D01*
X58666076Y-53264575D02*
X58666076Y-52321078D01*
%TO.N,GND*%
X57390002Y-60150000D02*
X57580589Y-60340587D01*
X57580589Y-60340587D02*
X57580589Y-61509411D01*
X43820000Y-60250000D02*
X44960000Y-60250000D01*
X44960000Y-60250000D02*
X45520000Y-59690000D01*
%TO.N,GPIO26_ADC3*%
X52710000Y-60260000D02*
X52710000Y-60263484D01*
X52710000Y-60263484D02*
X53404323Y-60957807D01*
X53404323Y-60957807D02*
X54552193Y-60957807D01*
X54552193Y-60957807D02*
X55290000Y-60220000D01*
X55292640Y-60220000D02*
X56444955Y-59067685D01*
X55290000Y-60220000D02*
X55292640Y-60220000D01*
%TO.N,GPIO26_ADC0*%
X52345600Y-59425600D02*
X52620465Y-59150735D01*
X52620465Y-59150735D02*
X54657894Y-59150735D01*
X54657894Y-59150735D02*
X54848629Y-58960000D01*
X54848629Y-58960000D02*
X54855584Y-58960000D01*
X54855584Y-58960000D02*
X55596427Y-58219157D01*
%TO.N,GPIO22*%
X52988761Y-57933909D02*
X51162108Y-59760562D01*
X51162108Y-59760562D02*
X51162108Y-61572108D01*
X51162108Y-61572108D02*
X51310000Y-61720000D01*
X52988761Y-57933909D02*
X53618933Y-57933909D01*
X53618933Y-57933909D02*
X54465056Y-57087786D01*
%TO.N,GND*%
X50562108Y-61117892D02*
X50550000Y-61105784D01*
X50550000Y-61105784D02*
X50550000Y-59510000D01*
X50550000Y-59510000D02*
X51450589Y-58609411D01*
X50562108Y-61117892D02*
X50530000Y-61150000D01*
%TO.N,RUN*%
X54188575Y-54518600D02*
X54188575Y-54495527D01*
X54188575Y-54495527D02*
X53616530Y-53923482D01*
%TO.N,+1V1*%
X55390763Y-54040760D02*
X55390763Y-54000659D01*
X55390763Y-54000659D02*
X54465058Y-53074954D01*
X57828453Y-58135411D02*
X58477885Y-58784843D01*
X57828453Y-58108453D02*
X57828453Y-58135411D01*
X58477885Y-58784843D02*
X58477887Y-58784843D01*
%TO.N,+3V3*%
X58653360Y-57093614D02*
X57994763Y-57093614D01*
X57994763Y-57093614D02*
X57318377Y-57770000D01*
X57318377Y-57770000D02*
X57210000Y-57770000D01*
X58550000Y-59422644D02*
X58550000Y-59660000D01*
X58550000Y-59660000D02*
X58139411Y-60070589D01*
X58139411Y-60070589D02*
X58139411Y-60780589D01*
%TO.N,+1V1*%
X60268579Y-57747107D02*
X60268579Y-57764265D01*
X60268579Y-57764265D02*
X61519770Y-59015456D01*
X61519770Y-59015456D02*
X61817957Y-59015456D01*
X61817957Y-59015456D02*
X62362501Y-59560000D01*
X59892101Y-57370629D02*
X60268579Y-57747107D01*
X62362501Y-59560000D02*
X67310000Y-59560000D01*
X67310000Y-59560000D02*
X67570000Y-59300000D01*
X67570000Y-59300000D02*
X67950000Y-59300000D01*
%TO.N,QSPI_SD3*%
X60174944Y-57087786D02*
X60668579Y-57581421D01*
X60668579Y-57581421D02*
X60668579Y-57598579D01*
X60668579Y-57598579D02*
X61685456Y-58615456D01*
X61685456Y-58615456D02*
X62405456Y-58615456D01*
X62405456Y-58615456D02*
X62540000Y-58750000D01*
%TO.N,GND*%
X44450000Y-56030000D02*
X44450000Y-53770000D01*
X45870000Y-57450000D02*
X44450000Y-56030000D01*
X44450000Y-53770000D02*
X46220000Y-52000000D01*
X45870000Y-57810000D02*
X45870000Y-57450000D01*
%TO.N,XOUT*%
X44890000Y-52040000D02*
X43690000Y-53240000D01*
X43690000Y-53240000D02*
X43690000Y-56490000D01*
X43690000Y-56490000D02*
X44190000Y-56990000D01*
%TO.N,GND*%
X55950589Y-61559411D02*
X56091178Y-61700000D01*
X57220000Y-61700000D02*
X57460589Y-61459411D01*
X57460589Y-61459411D02*
X58371178Y-62370000D01*
X58371178Y-62370000D02*
X59240000Y-62370000D01*
X56091178Y-61700000D02*
X57220000Y-61700000D01*
X59240000Y-62370000D02*
X59890000Y-61720000D01*
X59890000Y-61720000D02*
X59890000Y-61610000D01*
X69830000Y-60920000D02*
X69230000Y-60320000D01*
X69230000Y-60320000D02*
X68920000Y-60320000D01*
X73447498Y-60930000D02*
X73037500Y-60930000D01*
X73037500Y-60930000D02*
X72985000Y-60982500D01*
%TO.N,XIN*%
X54460000Y-51372842D02*
X55313585Y-52226427D01*
X54460000Y-51090000D02*
X54460000Y-51372842D01*
%TO.N,GND*%
X56190000Y-52537158D02*
X56190000Y-52550000D01*
X55596427Y-51943585D02*
X56190000Y-52537158D01*
%TO.N,GPIO25*%
X49881570Y-54700000D02*
X45181570Y-50000000D01*
X45181570Y-50000000D02*
X44291250Y-50000000D01*
%TO.N,XIN*%
X51410000Y-53960000D02*
X51410000Y-54020098D01*
X46130000Y-59300098D02*
X46130000Y-60040000D01*
X51410000Y-54020098D02*
X46130000Y-59300098D01*
X46130000Y-60040000D02*
X45520000Y-60650000D01*
%TO.N,GPIO23*%
X53640449Y-58478079D02*
X54747899Y-57370629D01*
X53640449Y-58533524D02*
X53640449Y-58478079D01*
%TO.N,GND*%
X42090000Y-56980000D02*
X43660000Y-58550000D01*
X43660000Y-58550000D02*
X43820000Y-58550000D01*
X49439411Y-51010589D02*
X49380000Y-51070000D01*
X51640589Y-51010589D02*
X49439411Y-51010589D01*
X52320589Y-50330589D02*
X51640589Y-51010589D01*
%TO.N,GPIO0*%
X66699265Y-51879265D02*
X66699265Y-51596421D01*
X66699265Y-51596421D02*
X68955686Y-49340000D01*
X81325686Y-47730000D02*
X87810000Y-47730000D01*
X87810000Y-47730000D02*
X89360000Y-46180000D01*
X68955686Y-49340000D02*
X79715686Y-49340000D01*
X79715686Y-49340000D02*
X81325686Y-47730000D01*
%TO.N,GPIO25*%
X55313585Y-57936315D02*
X55196428Y-58053472D01*
X55196426Y-58053472D02*
X54644949Y-58604949D01*
X55196428Y-58053472D02*
X55196426Y-58053472D01*
X54644949Y-58604949D02*
X54516991Y-58476991D01*
X54516991Y-58476991D02*
X54490064Y-58476991D01*
%TO.N,GPIO24*%
X55030742Y-57653472D02*
X55635735Y-57048479D01*
X55635735Y-57048479D02*
X55635735Y-57044265D01*
%TO.N,+3V3*%
X56727798Y-59350528D02*
X57210000Y-58868326D01*
X57210000Y-58868326D02*
X57210000Y-57770000D01*
X57210000Y-57770000D02*
X55600000Y-56160000D01*
X55600000Y-56160000D02*
X54827158Y-56160000D01*
X54827158Y-56160000D02*
X54182214Y-56804944D01*
%TO.N,+1V1*%
X59514605Y-56991245D02*
X59514605Y-56993133D01*
X58950000Y-61590000D02*
X58930000Y-61610000D01*
X53079509Y-51689411D02*
X52319411Y-51689411D01*
X54145049Y-52754951D02*
X53079509Y-51689411D01*
X58477887Y-58784845D02*
X58950000Y-59256958D01*
X58477887Y-58784843D02*
X58477887Y-58784845D01*
X59514605Y-56993133D02*
X59892101Y-57370629D01*
X54465056Y-53074956D02*
X54145049Y-52754951D01*
X59253360Y-56730000D02*
X59514605Y-56991245D01*
X58950000Y-59256958D02*
X58950000Y-61590000D01*
%TO.N,+3V3*%
X58653360Y-57093614D02*
X58889746Y-57330000D01*
X80106970Y-57925285D02*
X80106970Y-57806970D01*
X58653360Y-56481471D02*
X58653360Y-57093614D01*
X59850104Y-58460000D02*
X60130000Y-58460000D01*
X59043573Y-51943587D02*
X58926417Y-52060743D01*
X79280000Y-63960000D02*
X79200000Y-63960000D01*
X61211663Y-54866665D02*
X60746665Y-54866665D01*
X54747901Y-52792111D02*
X55215790Y-53260000D01*
X62990589Y-55890601D02*
X62990589Y-55960589D01*
X52129411Y-57930589D02*
X52526091Y-57533909D01*
X58657154Y-52330000D02*
X58666076Y-52321078D01*
X61589157Y-54489169D02*
X61919994Y-54820006D01*
X53453249Y-57533909D02*
X53717156Y-57270002D01*
X75420000Y-55192500D02*
X75940000Y-55712500D01*
X61919994Y-54820006D02*
X61706318Y-54606330D01*
X80106970Y-57806970D02*
X79550000Y-57250000D01*
X57912202Y-59350528D02*
X58195043Y-59067687D01*
X59850000Y-49660000D02*
X60200589Y-49309411D01*
X61706318Y-54606330D02*
X61471998Y-54606330D01*
X59499898Y-58109792D02*
X59530695Y-58140589D01*
X59285786Y-57330000D02*
X58889746Y-57330000D01*
X60268166Y-54866665D02*
X58653360Y-56481471D01*
X62939988Y-55840000D02*
X62950000Y-55840000D01*
X53847143Y-51891361D02*
X52999411Y-51043629D01*
X55719411Y-60620589D02*
X56369411Y-60620589D01*
X78400000Y-57262500D02*
X78310000Y-57172500D01*
X56727798Y-59350528D02*
X57912202Y-59350528D01*
D42*
X82690000Y-60550000D02*
X79280000Y-63960000D01*
D41*
X59043573Y-51943585D02*
X59850000Y-51137158D01*
X61589157Y-54489169D02*
X61449164Y-54629163D01*
X62950000Y-55840000D02*
X62950000Y-55850012D01*
X79570000Y-57262500D02*
X78400000Y-57262500D01*
X62950000Y-55850012D02*
X62990589Y-55890601D01*
X60746665Y-54866665D02*
X60268166Y-54866665D01*
X56369411Y-60620589D02*
X56629411Y-60880589D01*
X68990000Y-61270000D02*
X68910000Y-61350000D01*
X56727798Y-59702202D02*
X55809411Y-60620589D01*
X58666076Y-52321078D02*
X59043571Y-51943583D01*
X56727798Y-59350528D02*
X56727798Y-59702202D01*
X54747899Y-52792113D02*
X53847147Y-51891361D01*
X59609258Y-57653472D02*
X59285786Y-57330000D01*
X53847147Y-51891361D02*
X53847143Y-51891361D01*
X59043573Y-51943585D02*
X59043573Y-51943587D01*
X75940000Y-55712500D02*
X76850000Y-55712500D01*
X52526091Y-57533909D02*
X53453249Y-57533909D01*
X61471998Y-54606330D02*
X61211663Y-54866665D01*
X67960000Y-60400000D02*
X68910000Y-61350000D01*
X59850000Y-51137158D02*
X59850000Y-49660000D01*
X59326417Y-57936313D02*
X59850104Y-58460000D01*
X53717154Y-57270000D02*
X54182212Y-56804942D01*
X76850000Y-55712500D02*
X78310000Y-57172500D01*
X52999411Y-51043629D02*
X52999411Y-51009411D01*
X61919994Y-54820006D02*
X62939988Y-55840000D01*
X67960000Y-60320000D02*
X67960000Y-60400000D01*
X75420000Y-54940000D02*
X75420000Y-55192500D01*
%TO.N,XIN*%
X42520000Y-61150000D02*
X45020000Y-61150000D01*
X41620000Y-60250000D02*
X42520000Y-61150000D01*
X45020000Y-61150000D02*
X45520000Y-60650000D01*
%TO.N,Net-(C16-Pad2)*%
X43170000Y-56990000D02*
X42550000Y-56370000D01*
X41130000Y-58060000D02*
X41620000Y-58550000D01*
X41130000Y-56980000D02*
X41130000Y-58060000D01*
X41740000Y-56370000D02*
X41130000Y-56980000D01*
X42550000Y-56370000D02*
X41740000Y-56370000D01*
%TO.N,GPIO15*%
X46474314Y-49570000D02*
X53788524Y-49570000D01*
X41100000Y-46180000D02*
X42310000Y-47390000D01*
X42310000Y-47390000D02*
X44294314Y-47390000D01*
X53788524Y-49570000D02*
X55879268Y-51660744D01*
X44294314Y-47390000D02*
X46474314Y-49570000D01*
%TO.N,GPIO17*%
X47380000Y-62810000D02*
X48320000Y-61870000D01*
X52355145Y-54489169D02*
X53050843Y-54489169D01*
X48320000Y-58524314D02*
X52355145Y-54489169D01*
X48320000Y-61870000D02*
X48320000Y-58524314D01*
X43640000Y-63960000D02*
X44790000Y-62810000D01*
X44790000Y-62810000D02*
X47380000Y-62810000D01*
%TO.N,GPIO16*%
X41100000Y-63960000D02*
X42670000Y-62390000D01*
X52449798Y-53828830D02*
X52956186Y-53828830D01*
X47920000Y-58358628D02*
X52449798Y-53828830D01*
X52956186Y-53828830D02*
X53333684Y-54206328D01*
X47920000Y-61660000D02*
X47920000Y-58358628D01*
X47190000Y-62390000D02*
X47920000Y-61660000D01*
X42670000Y-62390000D02*
X47190000Y-62390000D01*
%TO.N,XOUT*%
X53661358Y-50291364D02*
X53569997Y-50200003D01*
X53661358Y-51139890D02*
X53661358Y-50291364D01*
X54012833Y-51491361D02*
X54012829Y-51491361D01*
X54012829Y-51491361D02*
X53661358Y-51139890D01*
X55030742Y-52509270D02*
X54012833Y-51491361D01*
%TO.N,GPIO4*%
X68215686Y-47730000D02*
X75110000Y-47730000D01*
X64145686Y-51800000D02*
X68215686Y-47730000D01*
X60174946Y-53074958D02*
X61449904Y-51800000D01*
X75110000Y-47730000D02*
X76660000Y-46180000D01*
X61449904Y-51800000D02*
X64145686Y-51800000D01*
%TO.N,GPIO3*%
X68464314Y-48130000D02*
X64394314Y-52200000D01*
X79200000Y-46180000D02*
X77250000Y-48130000D01*
X61615590Y-52200000D02*
X60457789Y-53357801D01*
X77250000Y-48130000D02*
X68464314Y-48130000D01*
X64394314Y-52200000D02*
X61615590Y-52200000D01*
%TO.N,RUN*%
X53616528Y-53923486D02*
X53721521Y-54028479D01*
X53616528Y-53923484D02*
X53616528Y-53923486D01*
%TO.N,GPIO7*%
X63350000Y-47370000D02*
X60260000Y-50460000D01*
X60260000Y-50460000D02*
X60260000Y-51292846D01*
X66500000Y-46180000D02*
X65310000Y-47370000D01*
X65310000Y-47370000D02*
X63350000Y-47370000D01*
X60260000Y-51292846D02*
X59326417Y-52226429D01*
%TO.N,QSPI_SCLK*%
X63218629Y-58401372D02*
X63218629Y-58728629D01*
X61715686Y-58071371D02*
X62888628Y-58071371D01*
X79037500Y-59712500D02*
X79040000Y-59710000D01*
X60457786Y-56804944D02*
X61050000Y-57397158D01*
X62888628Y-58071371D02*
X63218629Y-58401372D01*
X61050000Y-57405685D02*
X61715686Y-58071371D01*
X63218629Y-58728629D02*
X63350000Y-58860000D01*
X61050000Y-57397158D02*
X61050000Y-57405685D01*
X78310000Y-59712500D02*
X79037500Y-59712500D01*
%TO.N,GPIO10*%
X56340000Y-46180000D02*
X58650000Y-48490000D01*
X58650000Y-50640098D02*
X58195043Y-51095055D01*
X58650000Y-48490000D02*
X58650000Y-50640098D01*
%TO.N,GPIO1*%
X64710000Y-53020000D02*
X61926962Y-53020000D01*
X61926962Y-53020000D02*
X61023475Y-53923487D01*
X79560000Y-48930000D02*
X68800000Y-48930000D01*
X85670000Y-47330000D02*
X81160000Y-47330000D01*
X86820000Y-46180000D02*
X85670000Y-47330000D01*
X68800000Y-48930000D02*
X64710000Y-53020000D01*
X81160000Y-47330000D02*
X79560000Y-48930000D01*
%TO.N,QSPI_SD0*%
X64032943Y-58650000D02*
X69660494Y-58650000D01*
X77760000Y-61532500D02*
X78310000Y-60982500D01*
X60740629Y-56522101D02*
X61889899Y-57671371D01*
X61450000Y-57240000D02*
X61450000Y-57231470D01*
X63054314Y-57671371D02*
X64032943Y-58650000D01*
X61450000Y-57231470D02*
X61034265Y-56815735D01*
X69660494Y-58650000D02*
X72542994Y-61532500D01*
X72542994Y-61532500D02*
X77760000Y-61532500D01*
X61889899Y-57671371D02*
X63054314Y-57671371D01*
%TO.N,GPIO11*%
X57912202Y-50292202D02*
X53800000Y-46180000D01*
X57912202Y-50812214D02*
X57912202Y-50292202D01*
%TO.N,Net-(U1-USB_DP)*%
X60903788Y-60079376D02*
X61439376Y-60079376D01*
X59043571Y-58219159D02*
X60903788Y-60079376D01*
%TO.N,GPIO8*%
X63960000Y-46180000D02*
X63960000Y-46461476D01*
X60650000Y-47550000D02*
X62590000Y-47550000D01*
X58760730Y-51660742D02*
X59450000Y-50971472D01*
X59450000Y-48750000D02*
X60650000Y-47550000D01*
X59450000Y-50971472D02*
X59450000Y-48750000D01*
X62590000Y-47550000D02*
X63960000Y-46180000D01*
%TO.N,GPIO19*%
X52956189Y-56333909D02*
X53333684Y-55956414D01*
X51260000Y-63960000D02*
X49130000Y-61830000D01*
X49130000Y-58890000D02*
X51686091Y-56333909D01*
X49130000Y-61830000D02*
X49130000Y-58890000D01*
X51686091Y-56333909D02*
X52956189Y-56333909D01*
%TO.N,Net-(U1-USB_DM)*%
X58760728Y-58502002D02*
X60739376Y-60480650D01*
X60739376Y-60480650D02*
X60739376Y-60769376D01*
%TO.N,GPIO26_ADC1*%
X55014314Y-59360000D02*
X55021270Y-59360000D01*
X54823579Y-59550735D02*
X55014314Y-59360000D01*
X54262206Y-59550735D02*
X54823579Y-59550735D01*
X53642288Y-60170653D02*
X54262206Y-59550735D01*
X55021270Y-59360000D02*
X55879270Y-58502000D01*
X53642288Y-60347243D02*
X53642288Y-60170653D01*
%TO.N,GPIO20*%
X50820000Y-62790000D02*
X52630000Y-62790000D01*
X53616528Y-56239258D02*
X53121877Y-56733909D01*
X51851777Y-56733909D02*
X49530000Y-59055686D01*
X52630000Y-62790000D02*
X53800000Y-63960000D01*
X53121877Y-56733909D02*
X51851777Y-56733909D01*
X49530000Y-59055686D02*
X49530000Y-61500000D01*
X53616528Y-56239258D02*
X53616528Y-56239260D01*
X49530000Y-61500000D02*
X50820000Y-62790000D01*
X53220000Y-63960000D02*
X53800000Y-63960000D01*
%TO.N,GPIO6*%
X68600000Y-46180000D02*
X69040000Y-46180000D01*
X67020000Y-47770000D02*
X67950000Y-46840000D01*
X67950000Y-46830000D02*
X68600000Y-46180000D01*
X60660000Y-50630000D02*
X63520000Y-47770000D01*
X63520000Y-47770000D02*
X67020000Y-47770000D01*
X69040000Y-46180000D02*
X69040000Y-46310000D01*
X60660000Y-51458532D02*
X60660000Y-50630000D01*
X59609260Y-52509272D02*
X60660000Y-51458532D01*
X67950000Y-46840000D02*
X67950000Y-46830000D01*
%TO.N,QSPI_SD2*%
X61764949Y-56980737D02*
X61023472Y-56239258D01*
X62055583Y-57271371D02*
X61764949Y-56980737D01*
X63220000Y-57271371D02*
X62055583Y-57271371D01*
X72985000Y-59712500D02*
X71522500Y-58250000D01*
X64178628Y-58230000D02*
X63220000Y-57271371D01*
X71522500Y-58250000D02*
X64198629Y-58250000D01*
X64178629Y-58230000D02*
X64178628Y-58230000D01*
X64198629Y-58250000D02*
X64178629Y-58230000D01*
%TO.N,GPIO12*%
X56727798Y-50812214D02*
X54245584Y-48330000D01*
X53410000Y-48330000D02*
X51260000Y-46180000D01*
X54245584Y-48330000D02*
X53410000Y-48330000D01*
%TO.N,GPIO13*%
X54079902Y-48730000D02*
X56444957Y-51095055D01*
X48720000Y-46180000D02*
X51270000Y-48730000D01*
X51270000Y-48730000D02*
X54079902Y-48730000D01*
%TO.N,GPIO9*%
X58477887Y-51377899D02*
X58477887Y-51377897D01*
X58477887Y-51377897D02*
X59050000Y-50805784D01*
X59050000Y-48550000D02*
X61420000Y-46180000D01*
X59050000Y-50805784D02*
X59050000Y-48550000D01*
%TO.N,GPIO21*%
X54770000Y-62390000D02*
X56340000Y-63960000D01*
X52017463Y-57133909D02*
X49940000Y-59211372D01*
X49940000Y-61344314D02*
X50985686Y-62390000D01*
X50985686Y-62390000D02*
X54770000Y-62390000D01*
X49940000Y-59211372D02*
X49940000Y-61344314D01*
X53287563Y-57133909D02*
X52017463Y-57133909D01*
X53899371Y-56522101D02*
X53287563Y-57133909D01*
%TO.N,QSPI_SS*%
X71430000Y-57430000D02*
X71740000Y-57120000D01*
X71610000Y-57142500D02*
X72955000Y-57142500D01*
X64510000Y-57430000D02*
X71430000Y-57430000D01*
X61589157Y-55673573D02*
X62375584Y-56460000D01*
X62375584Y-56460000D02*
X63540000Y-56460000D01*
X72955000Y-57142500D02*
X72985000Y-57172500D01*
X63540000Y-56460000D02*
X64510000Y-57430000D01*
X72985000Y-57172500D02*
X74445000Y-55712500D01*
X74445000Y-55712500D02*
X74920000Y-55712500D01*
%TO.N,GPIO2*%
X79390000Y-48530000D02*
X68634314Y-48530000D01*
X81740000Y-46180000D02*
X79390000Y-48530000D01*
X68634314Y-48530000D02*
X64544314Y-52620000D01*
X64544314Y-52620000D02*
X61761276Y-52620000D01*
X61761276Y-52620000D02*
X60740632Y-53640644D01*
%TO.N,QSPI_SD3*%
X79010000Y-58510000D02*
X78377500Y-58510000D01*
X78377500Y-58510000D02*
X78310000Y-58442500D01*
%TO.N,GPIO26_ADC2*%
X55180000Y-59760000D02*
X55186955Y-59760000D01*
X54510735Y-60150735D02*
X54789265Y-60150735D01*
X56143476Y-58803479D02*
X56103478Y-58843478D01*
X56103478Y-58843478D02*
X56162113Y-58784843D01*
X55186955Y-59760000D02*
X56143476Y-58803479D01*
X54789265Y-60150735D02*
X55180000Y-59760000D01*
%TO.N,QSPI_SD1*%
X64364315Y-57850000D02*
X64344315Y-57830000D01*
X64344315Y-57830000D02*
X64344314Y-57830000D01*
X64344314Y-57830000D02*
X63380000Y-56865685D01*
X63380000Y-56865685D02*
X62215583Y-56865685D01*
X72392500Y-57850000D02*
X64364315Y-57850000D01*
X72392500Y-57850000D02*
X72985000Y-58442500D01*
X62215583Y-56865685D02*
X62164949Y-56815051D01*
X61306314Y-55956416D02*
X62164949Y-56815051D01*
%TO.N,GPIO18*%
X48720000Y-63960000D02*
X48720000Y-58690000D01*
X51480000Y-55930000D02*
X52794412Y-55930000D01*
X48720000Y-58690000D02*
X51480000Y-55930000D01*
X52794412Y-55930000D02*
X53050841Y-55673571D01*
%TO.N,GPIO5*%
X74120000Y-46180000D02*
X72970000Y-47330000D01*
X60414218Y-52270000D02*
X59892103Y-52792115D01*
X68050000Y-47330000D02*
X63980000Y-51400000D01*
X72970000Y-47330000D02*
X68050000Y-47330000D01*
X61284218Y-51400000D02*
X60269601Y-52414617D01*
X63980000Y-51400000D02*
X61284218Y-51400000D01*
%TO.N,GPIO0*%
X61892648Y-53620000D02*
X61306318Y-54206330D01*
X62180000Y-53620000D02*
X61892648Y-53620000D01*
%TO.N,Net-(D5-K)*%
X84112500Y-51140000D02*
X90420000Y-51140000D01*
X81150000Y-54102500D02*
X84112500Y-51140000D01*
X90420000Y-51140000D02*
X90770000Y-51490000D01*
%TO.N,D-*%
X92450000Y-54900000D02*
X93132410Y-54900000D01*
X93400000Y-55167590D02*
X93400000Y-55690000D01*
X93400000Y-55690000D02*
X93190000Y-55900000D01*
X93190000Y-55900000D02*
X92450000Y-55900000D01*
X93132410Y-54900000D02*
X93400000Y-55167590D01*
%TO.N,D+*%
X92450000Y-55400000D02*
X91767590Y-55400000D01*
X91767590Y-55400000D02*
X91470000Y-55102410D01*
X91470000Y-54660000D02*
X91730000Y-54400000D01*
X91470000Y-55102410D02*
X91470000Y-54660000D01*
X91730000Y-54400000D02*
X92450000Y-54400000D01*
%TO.N,Net-(J1-CC1)*%
X91270000Y-56400000D02*
X90690000Y-56980000D01*
X92450000Y-56400000D02*
X91270000Y-56400000D01*
%TO.N,Net-(J1-CC2)*%
X92450000Y-53400000D02*
X91160000Y-53400000D01*
X91160000Y-53400000D02*
X90740000Y-53820000D01*
%TO.N,Net-(R3-Pad1)*%
X72520000Y-50480000D02*
X78520000Y-50480000D01*
X71740000Y-56100000D02*
X72830000Y-56100000D01*
X74080000Y-52040000D02*
X72520000Y-50480000D01*
X71740000Y-56100000D02*
X71720000Y-56080000D01*
X72830000Y-56100000D02*
X74080000Y-54850000D01*
X74080000Y-54850000D02*
X74080000Y-52040000D01*
%TO.N,GPIO14*%
X46610000Y-49140000D02*
X53924210Y-49140000D01*
X43640000Y-46180000D02*
X43650000Y-46180000D01*
X43650000Y-46180000D02*
X46610000Y-49140000D01*
X53924210Y-49140000D02*
X56162111Y-51377901D01*
D43*
%TO.N,+5V*%
X88550000Y-57010000D02*
X88450000Y-57110000D01*
D41*
X93800000Y-56875406D02*
X93125406Y-57550000D01*
D43*
X88450000Y-58100000D02*
X88380000Y-58170000D01*
D41*
X91310000Y-58318924D02*
X90878924Y-58750000D01*
D43*
X87225786Y-58532500D02*
X88357500Y-58532500D01*
D41*
X93800000Y-53450001D02*
X93800000Y-56875406D01*
D43*
X88450000Y-57110000D02*
X88450000Y-58100000D01*
D41*
X88575000Y-58750000D02*
X88357500Y-58532500D01*
X90878924Y-58750000D02*
X88575000Y-58750000D01*
D43*
X87220000Y-58526714D02*
X87225786Y-58532500D01*
D41*
X93125406Y-57550000D02*
X92450000Y-57550000D01*
X92450000Y-52750000D02*
X93099999Y-52750000D01*
X93099999Y-52750000D02*
X93800000Y-53450001D01*
X92450000Y-57550000D02*
X91800001Y-57550000D01*
X91800001Y-57550000D02*
X91310000Y-58040001D01*
X91310000Y-58040001D02*
X91310000Y-58318924D01*
X88550000Y-58340000D02*
X88357500Y-58532500D01*
%TO.N,Net-(D7-A)*%
X90690000Y-60550000D02*
X89565000Y-60550000D01*
X85367500Y-60550000D02*
X86297500Y-59620000D01*
X88120000Y-59620000D02*
X89307500Y-60807500D01*
X89565000Y-60550000D02*
X89307500Y-60807500D01*
X86297500Y-59620000D02*
X88120000Y-59620000D01*
%TO.N,GND*%
X61139411Y-48630589D02*
X61620000Y-48150000D01*
X70150000Y-56790000D02*
X70150000Y-56751076D01*
X84280000Y-63935000D02*
X84280000Y-63960000D01*
X92690000Y-59070000D02*
X93090000Y-59470000D01*
X68910000Y-59300000D02*
X68910000Y-60310000D01*
X90610000Y-59510000D02*
X90690000Y-59590000D01*
X90740000Y-52800000D02*
X91590000Y-51950000D01*
X55730589Y-61299411D02*
X56100589Y-61669411D01*
X68910000Y-59300000D02*
X69440000Y-59300000D01*
X90690000Y-58000000D02*
X90709448Y-58000000D01*
X89510000Y-57010000D02*
X89700000Y-57010000D01*
X70150000Y-56790000D02*
X70810000Y-56790000D01*
X67230000Y-60920000D02*
X67520000Y-60920000D01*
X55130589Y-61299411D02*
X55730589Y-61299411D01*
X70810000Y-56790000D02*
X70820000Y-56800000D01*
X89680000Y-59510000D02*
X90610000Y-59510000D01*
X72520000Y-54381076D02*
X72520000Y-54230000D01*
X90690000Y-58000000D02*
X89520000Y-58000000D01*
X91590000Y-51950000D02*
X92450000Y-51950000D01*
X68910000Y-60310000D02*
X68920000Y-60320000D01*
X92450000Y-58350000D02*
X92450000Y-58830000D01*
X92450000Y-51950000D02*
X92450000Y-51470000D01*
X92450000Y-51470000D02*
X93090000Y-50830000D01*
X60879411Y-48630589D02*
X61139411Y-48630589D01*
X89700000Y-57010000D02*
X90690000Y-58000000D01*
X70150000Y-56751076D02*
X72520000Y-54381076D01*
X92450000Y-58830000D02*
X93090000Y-59470000D01*
X69440000Y-59300000D02*
X69450982Y-59289018D01*
X89540000Y-56980000D02*
X89510000Y-57010000D01*
X67520000Y-60920000D02*
X67950000Y-61350000D01*
%TO.N,+3V3*%
X57310000Y-52330000D02*
X58657154Y-52330000D01*
X56380000Y-53260000D02*
X57310000Y-52330000D01*
X55215790Y-53260000D02*
X56380000Y-53260000D01*
X59609258Y-57653472D02*
X59609258Y-57719258D01*
X59609258Y-57719258D02*
X60130000Y-58240000D01*
X60130000Y-58240000D02*
X60130000Y-58450000D01*
X60130000Y-58450000D02*
X61095456Y-59415456D01*
X62196815Y-59960000D02*
X67240000Y-59960000D01*
X67600000Y-60320000D02*
X67960000Y-60320000D01*
X61095456Y-59415456D02*
X61652271Y-59415456D01*
X61652271Y-59415456D02*
X62196815Y-59960000D01*
X67240000Y-59960000D02*
X67600000Y-60320000D01*
%TO.N,GND*%
X59920000Y-61680000D02*
X60375769Y-62135769D01*
X59614298Y-63960000D02*
X58880000Y-63960000D01*
X60375769Y-62135769D02*
X60375769Y-63198529D01*
X60375769Y-63198529D02*
X59614298Y-63960000D01*
%TD*%
%TA.AperFunction,Conductor*%
%TO.N,GND*%
G36*
X96990490Y-45127936D02*
G01*
X97110016Y-45130957D01*
X97116246Y-45131273D01*
X97226151Y-45139630D01*
X97232316Y-45140255D01*
X97340444Y-45153996D01*
X97346586Y-45154935D01*
X97452788Y-45173900D01*
X97458865Y-45175144D01*
X97563112Y-45199205D01*
X97569097Y-45200744D01*
X97598643Y-45209134D01*
X97671329Y-45229774D01*
X97677148Y-45231584D01*
X97777249Y-45265454D01*
X97782973Y-45267549D01*
X97880828Y-45306132D01*
X97886389Y-45308484D01*
X97981903Y-45351664D01*
X97987338Y-45354284D01*
X98080337Y-45401916D01*
X98085593Y-45404771D01*
X98175965Y-45456733D01*
X98181079Y-45459840D01*
X98268707Y-45516017D01*
X98273602Y-45519323D01*
X98358338Y-45579580D01*
X98363082Y-45583128D01*
X98444735Y-45647294D01*
X98449304Y-45651065D01*
X98527756Y-45719020D01*
X98532136Y-45723000D01*
X98607248Y-45794613D01*
X98611429Y-45798795D01*
X98683025Y-45873890D01*
X98687003Y-45878266D01*
X98754963Y-45956720D01*
X98758735Y-45961291D01*
X98822895Y-46042936D01*
X98826451Y-46047692D01*
X98886684Y-46132392D01*
X98890005Y-46137307D01*
X98946189Y-46224944D01*
X98949287Y-46230043D01*
X99001255Y-46320424D01*
X99004123Y-46325704D01*
X99051755Y-46418699D01*
X99054379Y-46424146D01*
X99097532Y-46519597D01*
X99099900Y-46525195D01*
X99105119Y-46538431D01*
X99134484Y-46612908D01*
X99138485Y-46623054D01*
X99140586Y-46628794D01*
X99174446Y-46728863D01*
X99176272Y-46734735D01*
X99205290Y-46836924D01*
X99206829Y-46842909D01*
X99230894Y-46947172D01*
X99232140Y-46953260D01*
X99251101Y-47059438D01*
X99252043Y-47065605D01*
X99265776Y-47173675D01*
X99266408Y-47179904D01*
X99274763Y-47289770D01*
X99275080Y-47296037D01*
X99278103Y-47415549D01*
X99278143Y-47418685D01*
X99278143Y-62781315D01*
X99278103Y-62784451D01*
X99275080Y-62903961D01*
X99274763Y-62910227D01*
X99266409Y-63020083D01*
X99265777Y-63026312D01*
X99252044Y-63134386D01*
X99251102Y-63140554D01*
X99232137Y-63246751D01*
X99230891Y-63252840D01*
X99206833Y-63357071D01*
X99205294Y-63363056D01*
X99176269Y-63465266D01*
X99174443Y-63471137D01*
X99140586Y-63571197D01*
X99138484Y-63576938D01*
X99099904Y-63674782D01*
X99097538Y-63680379D01*
X99054380Y-63775842D01*
X99051755Y-63781289D01*
X99004123Y-63874284D01*
X99001255Y-63879564D01*
X98949287Y-63969945D01*
X98946179Y-63975060D01*
X98890025Y-64062650D01*
X98886690Y-64067588D01*
X98826452Y-64152296D01*
X98822895Y-64157052D01*
X98758735Y-64238697D01*
X98754964Y-64243266D01*
X98686994Y-64321734D01*
X98683014Y-64326113D01*
X98611432Y-64401192D01*
X98607252Y-64405373D01*
X98532124Y-64477001D01*
X98527745Y-64480980D01*
X98449311Y-64548921D01*
X98444741Y-64552693D01*
X98363092Y-64616856D01*
X98358337Y-64620412D01*
X98273634Y-64680646D01*
X98268696Y-64683981D01*
X98181083Y-64740150D01*
X98175969Y-64743258D01*
X98085592Y-64795224D01*
X98080309Y-64798093D01*
X97987334Y-64845713D01*
X97981890Y-64848336D01*
X97886424Y-64891497D01*
X97880826Y-64893865D01*
X97782968Y-64932450D01*
X97777226Y-64934551D01*
X97677179Y-64968403D01*
X97671310Y-64970229D01*
X97569087Y-64999258D01*
X97563100Y-65000798D01*
X97458873Y-65024854D01*
X97452786Y-65026099D01*
X97346595Y-65045063D01*
X97340428Y-65046005D01*
X97232349Y-65059740D01*
X97226118Y-65060372D01*
X97116265Y-65068725D01*
X97109999Y-65069042D01*
X96998597Y-65071859D01*
X96990488Y-65072065D01*
X96987355Y-65072105D01*
X90457153Y-65072105D01*
X90390114Y-65052420D01*
X90344359Y-64999616D01*
X90334415Y-64930458D01*
X90363440Y-64866902D01*
X90369472Y-64860424D01*
X90382804Y-64847092D01*
X90398495Y-64831401D01*
X90534035Y-64637830D01*
X90633903Y-64423663D01*
X90695063Y-64195408D01*
X90715659Y-63960000D01*
X90695063Y-63724592D01*
X90633903Y-63496337D01*
X90534035Y-63282171D01*
X90528425Y-63274158D01*
X90398494Y-63088597D01*
X90231402Y-62921506D01*
X90231395Y-62921501D01*
X90228647Y-62919577D01*
X90145404Y-62861289D01*
X90037834Y-62785967D01*
X90037830Y-62785965D01*
X89985594Y-62761607D01*
X89823663Y-62686097D01*
X89823659Y-62686096D01*
X89823655Y-62686094D01*
X89595413Y-62624938D01*
X89595403Y-62624936D01*
X89360001Y-62604341D01*
X89359999Y-62604341D01*
X89124596Y-62624936D01*
X89124586Y-62624938D01*
X88896344Y-62686094D01*
X88896337Y-62686096D01*
X88896337Y-62686097D01*
X88882816Y-62692401D01*
X88682171Y-62785964D01*
X88682169Y-62785965D01*
X88488597Y-62921505D01*
X88321505Y-63088597D01*
X88191575Y-63274158D01*
X88136998Y-63317783D01*
X88067500Y-63324977D01*
X88005145Y-63293454D01*
X87988425Y-63274158D01*
X87858494Y-63088597D01*
X87691402Y-62921506D01*
X87691395Y-62921501D01*
X87688647Y-62919577D01*
X87605404Y-62861289D01*
X87497834Y-62785967D01*
X87497830Y-62785965D01*
X87445594Y-62761607D01*
X87283663Y-62686097D01*
X87283659Y-62686096D01*
X87283655Y-62686094D01*
X87055413Y-62624938D01*
X87055403Y-62624936D01*
X86820001Y-62604341D01*
X86819999Y-62604341D01*
X86584596Y-62624936D01*
X86584586Y-62624938D01*
X86356344Y-62686094D01*
X86356337Y-62686096D01*
X86356337Y-62686097D01*
X86342816Y-62692401D01*
X86142171Y-62785964D01*
X86142169Y-62785965D01*
X85948600Y-62921503D01*
X85826284Y-63043819D01*
X85764961Y-63077303D01*
X85695269Y-63072319D01*
X85639336Y-63030447D01*
X85622421Y-62999470D01*
X85573354Y-62867913D01*
X85573350Y-62867906D01*
X85487190Y-62752812D01*
X85487187Y-62752809D01*
X85372093Y-62666649D01*
X85372086Y-62666645D01*
X85237379Y-62616403D01*
X85237372Y-62616401D01*
X85177844Y-62610000D01*
X84530000Y-62610000D01*
X84530000Y-63526988D01*
X84472993Y-63494075D01*
X84345826Y-63460000D01*
X84214174Y-63460000D01*
X84087007Y-63494075D01*
X84030000Y-63526988D01*
X84030000Y-62610000D01*
X83749500Y-62610000D01*
X83682461Y-62590315D01*
X83636706Y-62537511D01*
X83625500Y-62486000D01*
X83625500Y-62478711D01*
X94699500Y-62478711D01*
X94699500Y-62721288D01*
X94731161Y-62961785D01*
X94793947Y-63196104D01*
X94886773Y-63420205D01*
X94886776Y-63420212D01*
X95008064Y-63630289D01*
X95008066Y-63630292D01*
X95008067Y-63630293D01*
X95155733Y-63822736D01*
X95155739Y-63822743D01*
X95327256Y-63994260D01*
X95327263Y-63994266D01*
X95359170Y-64018749D01*
X95519711Y-64141936D01*
X95729788Y-64263224D01*
X95953900Y-64356054D01*
X96188211Y-64418838D01*
X96368586Y-64442584D01*
X96428711Y-64450500D01*
X96428712Y-64450500D01*
X96671289Y-64450500D01*
X96719388Y-64444167D01*
X96911789Y-64418838D01*
X97146100Y-64356054D01*
X97370212Y-64263224D01*
X97580289Y-64141936D01*
X97772738Y-63994265D01*
X97944265Y-63822738D01*
X98091936Y-63630289D01*
X98213224Y-63420212D01*
X98306054Y-63196100D01*
X98368838Y-62961789D01*
X98400500Y-62721288D01*
X98400500Y-62478712D01*
X98397777Y-62458032D01*
X98387408Y-62379268D01*
X98368838Y-62238211D01*
X98306054Y-62003900D01*
X98213224Y-61779788D01*
X98091936Y-61569711D01*
X97991125Y-61438331D01*
X97944266Y-61377263D01*
X97944260Y-61377256D01*
X97772743Y-61205739D01*
X97772736Y-61205733D01*
X97580293Y-61058067D01*
X97580292Y-61058066D01*
X97580289Y-61058064D01*
X97370212Y-60936776D01*
X97338424Y-60923609D01*
X97146104Y-60843947D01*
X96982126Y-60800009D01*
X96911789Y-60781162D01*
X96911788Y-60781161D01*
X96911785Y-60781161D01*
X96671289Y-60749500D01*
X96671288Y-60749500D01*
X96428712Y-60749500D01*
X96428711Y-60749500D01*
X96188214Y-60781161D01*
X95953895Y-60843947D01*
X95729794Y-60936773D01*
X95729785Y-60936777D01*
X95519706Y-61058067D01*
X95327263Y-61205733D01*
X95327256Y-61205739D01*
X95155739Y-61377256D01*
X95155733Y-61377263D01*
X95008067Y-61569706D01*
X95008064Y-61569710D01*
X95008064Y-61569711D01*
X95001897Y-61580393D01*
X94886777Y-61779785D01*
X94886773Y-61779794D01*
X94793947Y-62003895D01*
X94731161Y-62238214D01*
X94699500Y-62478711D01*
X83625500Y-62478711D01*
X83625500Y-61500217D01*
X83645185Y-61433178D01*
X83684405Y-61394678D01*
X83768651Y-61342715D01*
X83768654Y-61342713D01*
X83768653Y-61342713D01*
X83768656Y-61342712D01*
X83892712Y-61218656D01*
X83984814Y-61069334D01*
X84039999Y-60902797D01*
X84050500Y-60800009D01*
X84050499Y-60099992D01*
X84048998Y-60085302D01*
X84039999Y-59997203D01*
X84039998Y-59997200D01*
X84029266Y-59964813D01*
X83984814Y-59830666D01*
X83892712Y-59681344D01*
X83768656Y-59557288D01*
X83619334Y-59465186D01*
X83452797Y-59410001D01*
X83452795Y-59410000D01*
X83350016Y-59399500D01*
X83350009Y-59399500D01*
X82864782Y-59399500D01*
X82797743Y-59379815D01*
X82751988Y-59327011D01*
X82742044Y-59257853D01*
X82771069Y-59194297D01*
X82777101Y-59187819D01*
X83088685Y-58876236D01*
X83498102Y-58466819D01*
X83559425Y-58433334D01*
X83585783Y-58430500D01*
X86079017Y-58430500D01*
X86079033Y-58430501D01*
X86086629Y-58430501D01*
X86244741Y-58430501D01*
X86244743Y-58430501D01*
X86259756Y-58426478D01*
X86329606Y-58428139D01*
X86387469Y-58467301D01*
X86414974Y-58531529D01*
X86415071Y-58532368D01*
X86434630Y-58705964D01*
X86434633Y-58705976D01*
X86486620Y-58854544D01*
X86490182Y-58924323D01*
X86455454Y-58984950D01*
X86393460Y-59017178D01*
X86369579Y-59019499D01*
X86218443Y-59019499D01*
X86142079Y-59039961D01*
X86065714Y-59060423D01*
X86065709Y-59060426D01*
X85928790Y-59139475D01*
X85928786Y-59139478D01*
X85705081Y-59363182D01*
X85643758Y-59396666D01*
X85617401Y-59399500D01*
X85449999Y-59399500D01*
X85449980Y-59399501D01*
X85347203Y-59410000D01*
X85347200Y-59410001D01*
X85180668Y-59465185D01*
X85180663Y-59465187D01*
X85031342Y-59557289D01*
X84907289Y-59681342D01*
X84815187Y-59830663D01*
X84815185Y-59830668D01*
X84801371Y-59872357D01*
X84760001Y-59997203D01*
X84760001Y-59997204D01*
X84760000Y-59997204D01*
X84749500Y-60099983D01*
X84749500Y-60800001D01*
X84749501Y-60800019D01*
X84760000Y-60902796D01*
X84760001Y-60902799D01*
X84815185Y-61069331D01*
X84815187Y-61069336D01*
X84829373Y-61092335D01*
X84907288Y-61218656D01*
X85031344Y-61342712D01*
X85180666Y-61434814D01*
X85347203Y-61489999D01*
X85449991Y-61500500D01*
X86150008Y-61500499D01*
X86150016Y-61500498D01*
X86150019Y-61500498D01*
X86206302Y-61494748D01*
X86252797Y-61489999D01*
X86419334Y-61434814D01*
X86445693Y-61418555D01*
X86513082Y-61400114D01*
X86579747Y-61421035D01*
X86624517Y-61474676D01*
X86629866Y-61489497D01*
X86656216Y-61580195D01*
X86656217Y-61580196D01*
X86739814Y-61721552D01*
X86739821Y-61721561D01*
X86855938Y-61837678D01*
X86855947Y-61837685D01*
X86997301Y-61921281D01*
X87155014Y-61967100D01*
X87155011Y-61967100D01*
X87157498Y-61967295D01*
X87157500Y-61967295D01*
X87657500Y-61967295D01*
X87657501Y-61967295D01*
X87659986Y-61967100D01*
X87817698Y-61921281D01*
X87959052Y-61837685D01*
X87959061Y-61837678D01*
X88075178Y-61721561D01*
X88075185Y-61721552D01*
X88158782Y-61580196D01*
X88158783Y-61580193D01*
X88204599Y-61422495D01*
X88204600Y-61422489D01*
X88207499Y-61385649D01*
X88207500Y-61385634D01*
X88207500Y-61057500D01*
X87657500Y-61057500D01*
X87657500Y-61967295D01*
X87157500Y-61967295D01*
X87157500Y-60681500D01*
X87177185Y-60614461D01*
X87229989Y-60568706D01*
X87281500Y-60557500D01*
X88156903Y-60557500D01*
X88223942Y-60577185D01*
X88244584Y-60593819D01*
X88470681Y-60819916D01*
X88504166Y-60881239D01*
X88507000Y-60907597D01*
X88507000Y-61385701D01*
X88509901Y-61422567D01*
X88509902Y-61422573D01*
X88555754Y-61580393D01*
X88555755Y-61580396D01*
X88555756Y-61580398D01*
X88582763Y-61626065D01*
X88639417Y-61721862D01*
X88639423Y-61721870D01*
X88755629Y-61838076D01*
X88755633Y-61838079D01*
X88755635Y-61838081D01*
X88897102Y-61921744D01*
X88919616Y-61928285D01*
X89054926Y-61967597D01*
X89054929Y-61967597D01*
X89054931Y-61967598D01*
X89091806Y-61970500D01*
X89091814Y-61970500D01*
X89523186Y-61970500D01*
X89523194Y-61970500D01*
X89560069Y-61967598D01*
X89560071Y-61967597D01*
X89560073Y-61967597D01*
X89617230Y-61950991D01*
X89717898Y-61921744D01*
X89859365Y-61838081D01*
X89975581Y-61721865D01*
X90059244Y-61580398D01*
X90100520Y-61438327D01*
X90105097Y-61422573D01*
X90105098Y-61422567D01*
X90105219Y-61421035D01*
X90107468Y-61392445D01*
X90132350Y-61327158D01*
X90188580Y-61285686D01*
X90258305Y-61281197D01*
X90265668Y-61283093D01*
X90419007Y-61327643D01*
X90455310Y-61330500D01*
X90455318Y-61330500D01*
X90924682Y-61330500D01*
X90924690Y-61330500D01*
X90960993Y-61327643D01*
X90960995Y-61327642D01*
X90960997Y-61327642D01*
X91047400Y-61302539D01*
X91116395Y-61282494D01*
X91255687Y-61200117D01*
X91370117Y-61085687D01*
X91452494Y-60946395D01*
X91497643Y-60790993D01*
X91500500Y-60754690D01*
X91500500Y-60345310D01*
X91497643Y-60309007D01*
X91496845Y-60306261D01*
X91452495Y-60153609D01*
X91452494Y-60153605D01*
X91450153Y-60149646D01*
X91440089Y-60132630D01*
X91422906Y-60064909D01*
X91440091Y-60006384D01*
X91452029Y-59986199D01*
X91452089Y-59986061D01*
X91452164Y-59985969D01*
X91456005Y-59979477D01*
X91457051Y-59980096D01*
X91496775Y-59932349D01*
X91563406Y-59911323D01*
X91630827Y-59929658D01*
X91668997Y-59966407D01*
X91763248Y-60107462D01*
X91763251Y-60107466D01*
X91902533Y-60246748D01*
X91902537Y-60246751D01*
X92066315Y-60356185D01*
X92066328Y-60356192D01*
X92248306Y-60431569D01*
X92248318Y-60431572D01*
X92441504Y-60469999D01*
X92441508Y-60470000D01*
X92840000Y-60470000D01*
X92840000Y-59770000D01*
X93340000Y-59770000D01*
X93340000Y-60470000D01*
X93738492Y-60470000D01*
X93738495Y-60469999D01*
X93931681Y-60431572D01*
X93931693Y-60431569D01*
X94113671Y-60356192D01*
X94113684Y-60356185D01*
X94277462Y-60246751D01*
X94277466Y-60246748D01*
X94416748Y-60107466D01*
X94416751Y-60107462D01*
X94526185Y-59943684D01*
X94526192Y-59943671D01*
X94601569Y-59761692D01*
X94601569Y-59761690D01*
X94609862Y-59720000D01*
X93806988Y-59720000D01*
X93824205Y-59710060D01*
X93880060Y-59654205D01*
X93919556Y-59585796D01*
X93940000Y-59509496D01*
X93940000Y-59430504D01*
X93919556Y-59354204D01*
X93880060Y-59285795D01*
X93824205Y-59229940D01*
X93806988Y-59220000D01*
X94609862Y-59220000D01*
X96000138Y-59220000D01*
X96803012Y-59220000D01*
X96785795Y-59229940D01*
X96729940Y-59285795D01*
X96690444Y-59354204D01*
X96670000Y-59430504D01*
X96670000Y-59509496D01*
X96690444Y-59585796D01*
X96729940Y-59654205D01*
X96785795Y-59710060D01*
X96803012Y-59720000D01*
X96000138Y-59720000D01*
X96008430Y-59761690D01*
X96008430Y-59761692D01*
X96083807Y-59943671D01*
X96083814Y-59943684D01*
X96193248Y-60107462D01*
X96193251Y-60107466D01*
X96332533Y-60246748D01*
X96332537Y-60246751D01*
X96496315Y-60356185D01*
X96496328Y-60356192D01*
X96678306Y-60431569D01*
X96678318Y-60431572D01*
X96871504Y-60469999D01*
X96871508Y-60470000D01*
X97020000Y-60470000D01*
X97020000Y-59770000D01*
X97520000Y-59770000D01*
X97520000Y-60470000D01*
X97668492Y-60470000D01*
X97668495Y-60469999D01*
X97861681Y-60431572D01*
X97861693Y-60431569D01*
X98043671Y-60356192D01*
X98043684Y-60356185D01*
X98207462Y-60246751D01*
X98207466Y-60246748D01*
X98346748Y-60107466D01*
X98346751Y-60107462D01*
X98456185Y-59943684D01*
X98456192Y-59943671D01*
X98531569Y-59761692D01*
X98531569Y-59761690D01*
X98539862Y-59720000D01*
X97736988Y-59720000D01*
X97754205Y-59710060D01*
X97810060Y-59654205D01*
X97849556Y-59585796D01*
X97870000Y-59509496D01*
X97870000Y-59430504D01*
X97849556Y-59354204D01*
X97810060Y-59285795D01*
X97754205Y-59229940D01*
X97736988Y-59220000D01*
X98539862Y-59220000D01*
X98531569Y-59178309D01*
X98531569Y-59178307D01*
X98456192Y-58996328D01*
X98456185Y-58996315D01*
X98346751Y-58832537D01*
X98346748Y-58832533D01*
X98207466Y-58693251D01*
X98207462Y-58693248D01*
X98043684Y-58583814D01*
X98043671Y-58583807D01*
X97861693Y-58508430D01*
X97861681Y-58508427D01*
X97668495Y-58470000D01*
X97520000Y-58470000D01*
X97520000Y-59170000D01*
X97020000Y-59170000D01*
X97020000Y-58470000D01*
X96871504Y-58470000D01*
X96678318Y-58508427D01*
X96678306Y-58508430D01*
X96496328Y-58583807D01*
X96496315Y-58583814D01*
X96332537Y-58693248D01*
X96332533Y-58693251D01*
X96193251Y-58832533D01*
X96193248Y-58832537D01*
X96083814Y-58996315D01*
X96083807Y-58996328D01*
X96008430Y-59178307D01*
X96008430Y-59178309D01*
X96000138Y-59220000D01*
X94609862Y-59220000D01*
X94601569Y-59178309D01*
X94601569Y-59178307D01*
X94526192Y-58996328D01*
X94526185Y-58996315D01*
X94416751Y-58832537D01*
X94416748Y-58832533D01*
X94277466Y-58693251D01*
X94277462Y-58693248D01*
X94113684Y-58583814D01*
X94113674Y-58583809D01*
X94104157Y-58579867D01*
X94049754Y-58536026D01*
X94027689Y-58469731D01*
X94044969Y-58402032D01*
X94048648Y-58396597D01*
X94050512Y-58393367D01*
X94050515Y-58393365D01*
X94126281Y-58262135D01*
X94165500Y-58115766D01*
X94165500Y-57964234D01*
X94126281Y-57817865D01*
X94050515Y-57686635D01*
X94031941Y-57668061D01*
X93998456Y-57606738D01*
X94003440Y-57537046D01*
X94031938Y-57492701D01*
X94158509Y-57366130D01*
X94158514Y-57366127D01*
X94168714Y-57355926D01*
X94168716Y-57355926D01*
X94280520Y-57244122D01*
X94341871Y-57137858D01*
X94359577Y-57107191D01*
X94400501Y-56954463D01*
X94400501Y-56796349D01*
X94400501Y-56788754D01*
X94400500Y-56788736D01*
X94400500Y-53539060D01*
X94400501Y-53539047D01*
X94400501Y-53370946D01*
X94400501Y-53370944D01*
X94359577Y-53218216D01*
X94322510Y-53154015D01*
X94322510Y-53154013D01*
X94280524Y-53081291D01*
X94280521Y-53081287D01*
X94280520Y-53081285D01*
X94168716Y-52969481D01*
X94168715Y-52969480D01*
X94164385Y-52965150D01*
X94164374Y-52965140D01*
X94019238Y-52820004D01*
X93985753Y-52758681D01*
X93990737Y-52688989D01*
X94019238Y-52644642D01*
X94050515Y-52613365D01*
X94126281Y-52482135D01*
X94165500Y-52335766D01*
X94165500Y-52184234D01*
X94126281Y-52037865D01*
X94050515Y-51906635D01*
X94050513Y-51906633D01*
X94046451Y-51899597D01*
X94048654Y-51898325D01*
X94028041Y-51845022D01*
X94042073Y-51776576D01*
X94090882Y-51726582D01*
X94104163Y-51720129D01*
X94113682Y-51716186D01*
X94113684Y-51716185D01*
X94277462Y-51606751D01*
X94277466Y-51606748D01*
X94416748Y-51467466D01*
X94416751Y-51467462D01*
X94526185Y-51303684D01*
X94526192Y-51303671D01*
X94601569Y-51121692D01*
X94601569Y-51121690D01*
X94609862Y-51080000D01*
X93806988Y-51080000D01*
X93824205Y-51070060D01*
X93880060Y-51014205D01*
X93919556Y-50945796D01*
X93940000Y-50869496D01*
X93940000Y-50790504D01*
X93919556Y-50714204D01*
X93880060Y-50645795D01*
X93824205Y-50589940D01*
X93806988Y-50580000D01*
X94609862Y-50580000D01*
X96000138Y-50580000D01*
X96803012Y-50580000D01*
X96785795Y-50589940D01*
X96729940Y-50645795D01*
X96690444Y-50714204D01*
X96670000Y-50790504D01*
X96670000Y-50869496D01*
X96690444Y-50945796D01*
X96729940Y-51014205D01*
X96785795Y-51070060D01*
X96803012Y-51080000D01*
X96000138Y-51080000D01*
X96008430Y-51121690D01*
X96008430Y-51121692D01*
X96083807Y-51303671D01*
X96083814Y-51303684D01*
X96193248Y-51467462D01*
X96193251Y-51467466D01*
X96332533Y-51606748D01*
X96332537Y-51606751D01*
X96496315Y-51716185D01*
X96496328Y-51716192D01*
X96678306Y-51791569D01*
X96678318Y-51791572D01*
X96871504Y-51829999D01*
X96871508Y-51830000D01*
X97020000Y-51830000D01*
X97020000Y-51130000D01*
X97520000Y-51130000D01*
X97520000Y-51830000D01*
X97668492Y-51830000D01*
X97668495Y-51829999D01*
X97861681Y-51791572D01*
X97861693Y-51791569D01*
X98043671Y-51716192D01*
X98043684Y-51716185D01*
X98207462Y-51606751D01*
X98207466Y-51606748D01*
X98346748Y-51467466D01*
X98346751Y-51467462D01*
X98456185Y-51303684D01*
X98456192Y-51303671D01*
X98531569Y-51121692D01*
X98531569Y-51121690D01*
X98539862Y-51080000D01*
X97736988Y-51080000D01*
X97754205Y-51070060D01*
X97810060Y-51014205D01*
X97849556Y-50945796D01*
X97870000Y-50869496D01*
X97870000Y-50790504D01*
X97849556Y-50714204D01*
X97810060Y-50645795D01*
X97754205Y-50589940D01*
X97736988Y-50580000D01*
X98539862Y-50580000D01*
X98531569Y-50538309D01*
X98531569Y-50538307D01*
X98456192Y-50356328D01*
X98456185Y-50356315D01*
X98346751Y-50192537D01*
X98346748Y-50192533D01*
X98207466Y-50053251D01*
X98207462Y-50053248D01*
X98043684Y-49943814D01*
X98043671Y-49943807D01*
X97861693Y-49868430D01*
X97861681Y-49868427D01*
X97668495Y-49830000D01*
X97520000Y-49830000D01*
X97520000Y-50530000D01*
X97020000Y-50530000D01*
X97020000Y-49830000D01*
X96871504Y-49830000D01*
X96678318Y-49868427D01*
X96678306Y-49868430D01*
X96496328Y-49943807D01*
X96496315Y-49943814D01*
X96332537Y-50053248D01*
X96332533Y-50053251D01*
X96193251Y-50192533D01*
X96193248Y-50192537D01*
X96083814Y-50356315D01*
X96083807Y-50356328D01*
X96008430Y-50538307D01*
X96008430Y-50538309D01*
X96000138Y-50580000D01*
X94609862Y-50580000D01*
X94601569Y-50538309D01*
X94601569Y-50538307D01*
X94526192Y-50356328D01*
X94526185Y-50356315D01*
X94416751Y-50192537D01*
X94416748Y-50192533D01*
X94277466Y-50053251D01*
X94277462Y-50053248D01*
X94113684Y-49943814D01*
X94113671Y-49943807D01*
X93931693Y-49868430D01*
X93931681Y-49868427D01*
X93738495Y-49830000D01*
X93340000Y-49830000D01*
X93340000Y-50530000D01*
X92840000Y-50530000D01*
X92840000Y-49830000D01*
X92441504Y-49830000D01*
X92248318Y-49868427D01*
X92248306Y-49868430D01*
X92066328Y-49943807D01*
X92066315Y-49943814D01*
X91902537Y-50053248D01*
X91765536Y-50190249D01*
X91704213Y-50223733D01*
X91634521Y-50218749D01*
X91578588Y-50176877D01*
X91558778Y-50137161D01*
X91542405Y-50080807D01*
X91460738Y-49942714D01*
X91460731Y-49942705D01*
X91347294Y-49829268D01*
X91347285Y-49829261D01*
X91209191Y-49747593D01*
X91209188Y-49747592D01*
X91055130Y-49702834D01*
X91020000Y-49700068D01*
X91020000Y-50591402D01*
X91000315Y-50658441D01*
X90947511Y-50704196D01*
X90878353Y-50714140D01*
X90814797Y-50685115D01*
X90808319Y-50679083D01*
X90788717Y-50659481D01*
X90788709Y-50659475D01*
X90674884Y-50593759D01*
X90674884Y-50593758D01*
X90674879Y-50593757D01*
X90666820Y-50589104D01*
X90651786Y-50580423D01*
X90613603Y-50570192D01*
X90499057Y-50539499D01*
X90340943Y-50539499D01*
X90333347Y-50539499D01*
X90333331Y-50539500D01*
X84199170Y-50539500D01*
X84199154Y-50539499D01*
X84191558Y-50539499D01*
X84065000Y-50539499D01*
X83997961Y-50519814D01*
X83952206Y-50467010D01*
X83942262Y-50397852D01*
X83944426Y-50386552D01*
X83976932Y-50251151D01*
X83976933Y-50251148D01*
X83979384Y-50220000D01*
X89957156Y-50220000D01*
X90520000Y-50220000D01*
X90520000Y-49700068D01*
X90519999Y-49700068D01*
X90484869Y-49702834D01*
X90484868Y-49702834D01*
X90330811Y-49747592D01*
X90330808Y-49747593D01*
X90192714Y-49829261D01*
X90192705Y-49829268D01*
X90079268Y-49942705D01*
X90079261Y-49942714D01*
X89997595Y-50080805D01*
X89957156Y-50220000D01*
X83979384Y-50220000D01*
X83996699Y-50000000D01*
X83976933Y-49748852D01*
X83918123Y-49503889D01*
X83904727Y-49471548D01*
X83821716Y-49271140D01*
X83690089Y-49056346D01*
X83690088Y-49056343D01*
X83653125Y-49013066D01*
X83526474Y-48864776D01*
X83336375Y-48702416D01*
X83334906Y-48701161D01*
X83334903Y-48701160D01*
X83120109Y-48569533D01*
X83118968Y-48569061D01*
X83118600Y-48568764D01*
X83115765Y-48567320D01*
X83116068Y-48566724D01*
X83064565Y-48525220D01*
X83042500Y-48458926D01*
X83059779Y-48391226D01*
X83110917Y-48343616D01*
X83166421Y-48330500D01*
X87723331Y-48330500D01*
X87723347Y-48330501D01*
X87730943Y-48330501D01*
X87889054Y-48330501D01*
X87889057Y-48330501D01*
X88041785Y-48289577D01*
X88053265Y-48282948D01*
X88096104Y-48258216D01*
X88096105Y-48258215D01*
X88178716Y-48210520D01*
X88290520Y-48098716D01*
X88290520Y-48098714D01*
X88300724Y-48088511D01*
X88300728Y-48088506D01*
X88876470Y-47512763D01*
X88937791Y-47479280D01*
X88996238Y-47480670D01*
X89124592Y-47515063D01*
X89295319Y-47530000D01*
X89359999Y-47535659D01*
X89360000Y-47535659D01*
X89360001Y-47535659D01*
X89424681Y-47530000D01*
X89439414Y-47528711D01*
X94699500Y-47528711D01*
X94699500Y-47771288D01*
X94731161Y-48011785D01*
X94793947Y-48246104D01*
X94863624Y-48414318D01*
X94886776Y-48470212D01*
X95008064Y-48680289D01*
X95008066Y-48680292D01*
X95008067Y-48680293D01*
X95155733Y-48872736D01*
X95155739Y-48872743D01*
X95327256Y-49044260D01*
X95327262Y-49044265D01*
X95519711Y-49191936D01*
X95729788Y-49313224D01*
X95953900Y-49406054D01*
X96188211Y-49468838D01*
X96368586Y-49492584D01*
X96428711Y-49500500D01*
X96428712Y-49500500D01*
X96671289Y-49500500D01*
X96719388Y-49494167D01*
X96911789Y-49468838D01*
X97146100Y-49406054D01*
X97370212Y-49313224D01*
X97580289Y-49191936D01*
X97772738Y-49044265D01*
X97944265Y-48872738D01*
X98091936Y-48680289D01*
X98213224Y-48470212D01*
X98306054Y-48246100D01*
X98368838Y-48011789D01*
X98400500Y-47771288D01*
X98400500Y-47528712D01*
X98399826Y-47523596D01*
X98384145Y-47404481D01*
X98368838Y-47288211D01*
X98306054Y-47053900D01*
X98213224Y-46829788D01*
X98091936Y-46619711D01*
X98020992Y-46527255D01*
X97944266Y-46427263D01*
X97944260Y-46427256D01*
X97772743Y-46255739D01*
X97772736Y-46255733D01*
X97580293Y-46108067D01*
X97580292Y-46108066D01*
X97580289Y-46108064D01*
X97370612Y-45987007D01*
X97370214Y-45986777D01*
X97370205Y-45986773D01*
X97146104Y-45893947D01*
X96911785Y-45831161D01*
X96671289Y-45799500D01*
X96671288Y-45799500D01*
X96428712Y-45799500D01*
X96428711Y-45799500D01*
X96188214Y-45831161D01*
X95953895Y-45893947D01*
X95729794Y-45986773D01*
X95729785Y-45986777D01*
X95519706Y-46108067D01*
X95327263Y-46255733D01*
X95327256Y-46255739D01*
X95155739Y-46427256D01*
X95155733Y-46427263D01*
X95008067Y-46619706D01*
X94886777Y-46829785D01*
X94886773Y-46829794D01*
X94793947Y-47053895D01*
X94731161Y-47288214D01*
X94699500Y-47528711D01*
X89439414Y-47528711D01*
X89595408Y-47515063D01*
X89823663Y-47453903D01*
X90037830Y-47354035D01*
X90231401Y-47218495D01*
X90398495Y-47051401D01*
X90534035Y-46857830D01*
X90633903Y-46643663D01*
X90695063Y-46415408D01*
X90715659Y-46180000D01*
X90695063Y-45944592D01*
X90633903Y-45716337D01*
X90534035Y-45502171D01*
X90524117Y-45488007D01*
X90408592Y-45323019D01*
X90386265Y-45256813D01*
X90403275Y-45189046D01*
X90454223Y-45141233D01*
X90510167Y-45127896D01*
X96987356Y-45127896D01*
X96990490Y-45127936D01*
G37*
%TD.AperFunction*%
%TA.AperFunction,Conductor*%
G36*
X57681645Y-61358333D02*
G01*
X57694737Y-61369710D01*
X57873449Y-61548422D01*
X57873465Y-61548437D01*
X57901155Y-61572087D01*
X57901157Y-61572088D01*
X58042963Y-61650046D01*
X58042970Y-61650048D01*
X58052908Y-61652600D01*
X58109755Y-61685024D01*
X58143181Y-61718450D01*
X58176666Y-61779773D01*
X58179500Y-61806131D01*
X58179500Y-61914697D01*
X58182356Y-61950991D01*
X58182357Y-61950997D01*
X58227504Y-62106390D01*
X58227505Y-62106393D01*
X58309881Y-62245684D01*
X58309887Y-62245692D01*
X58424307Y-62360112D01*
X58424316Y-62360119D01*
X58456695Y-62379268D01*
X58504379Y-62430337D01*
X58516882Y-62499079D01*
X58490236Y-62563668D01*
X58432901Y-62603598D01*
X58393574Y-62610000D01*
X57982155Y-62610000D01*
X57922627Y-62616401D01*
X57922620Y-62616403D01*
X57787913Y-62666645D01*
X57787906Y-62666649D01*
X57672812Y-62752809D01*
X57672809Y-62752812D01*
X57586649Y-62867906D01*
X57586645Y-62867913D01*
X57537578Y-62999470D01*
X57495707Y-63055404D01*
X57430242Y-63079821D01*
X57361969Y-63064969D01*
X57333715Y-63043819D01*
X57286182Y-62996286D01*
X57211401Y-62921505D01*
X57211397Y-62921502D01*
X57211396Y-62921501D01*
X57017834Y-62785967D01*
X57017830Y-62785965D01*
X56965594Y-62761607D01*
X56803663Y-62686097D01*
X56803659Y-62686096D01*
X56803655Y-62686094D01*
X56575413Y-62624938D01*
X56575410Y-62624937D01*
X56575408Y-62624937D01*
X56567773Y-62624269D01*
X56502705Y-62598813D01*
X56461729Y-62542221D01*
X56455822Y-62483269D01*
X56462683Y-62435058D01*
X56264499Y-62236874D01*
X57206676Y-62236874D01*
X57222625Y-62250496D01*
X57222635Y-62250503D01*
X57364326Y-62328399D01*
X57364336Y-62328402D01*
X57520947Y-62368613D01*
X57520955Y-62368614D01*
X57682653Y-62368614D01*
X57682658Y-62368613D01*
X57839276Y-62328400D01*
X57972684Y-62255058D01*
X57580590Y-61862964D01*
X57580589Y-61862964D01*
X57206676Y-62236874D01*
X56264499Y-62236874D01*
X55804716Y-61777091D01*
X55771231Y-61715768D01*
X55776215Y-61646076D01*
X55804716Y-61601728D01*
X55931035Y-61475410D01*
X55987866Y-61442991D01*
X55991088Y-61442164D01*
X56060914Y-61444553D01*
X56109613Y-61474585D01*
X56363449Y-61728422D01*
X56363465Y-61728437D01*
X56391155Y-61752087D01*
X56391157Y-61752088D01*
X56532963Y-61830046D01*
X56532970Y-61830048D01*
X56542908Y-61832600D01*
X56599755Y-61865024D01*
X56735588Y-62000857D01*
X56847217Y-61889228D01*
X56904057Y-61856807D01*
X57008282Y-61830047D01*
X57150093Y-61752087D01*
X57177783Y-61728437D01*
X57467259Y-61438961D01*
X57490909Y-61411271D01*
X57498393Y-61397656D01*
X57547935Y-61348392D01*
X57616249Y-61333732D01*
X57681645Y-61358333D01*
G37*
%TD.AperFunction*%
%TA.AperFunction,Conductor*%
G36*
X60823184Y-62024780D02*
G01*
X60859680Y-62050042D01*
X61021267Y-62211629D01*
X61021278Y-62211639D01*
X61021285Y-62211646D01*
X61048762Y-62235115D01*
X61148763Y-62290090D01*
X61189465Y-62312467D01*
X61251528Y-62328402D01*
X61344986Y-62352398D01*
X61344990Y-62352398D01*
X61505547Y-62352398D01*
X61505551Y-62352398D01*
X61661072Y-62312467D01*
X61697028Y-62292700D01*
X61765258Y-62277653D01*
X61830792Y-62301883D01*
X61844446Y-62313681D01*
X62012031Y-62481266D01*
X62045516Y-62542589D01*
X62040532Y-62612281D01*
X61998660Y-62668214D01*
X61933196Y-62692631D01*
X61889165Y-62686480D01*
X61888893Y-62687498D01*
X61655413Y-62624938D01*
X61655403Y-62624936D01*
X61420001Y-62604341D01*
X61419999Y-62604341D01*
X61184596Y-62624936D01*
X61184586Y-62624938D01*
X60956344Y-62686094D01*
X60956337Y-62686096D01*
X60956337Y-62686097D01*
X60942816Y-62692401D01*
X60742171Y-62785964D01*
X60742169Y-62785965D01*
X60548600Y-62921503D01*
X60426284Y-63043819D01*
X60364961Y-63077303D01*
X60295269Y-63072319D01*
X60239336Y-63030447D01*
X60222421Y-62999470D01*
X60173354Y-62867913D01*
X60173350Y-62867906D01*
X60087190Y-62752813D01*
X60034363Y-62713266D01*
X59992492Y-62657332D01*
X59987508Y-62587640D01*
X60020993Y-62526317D01*
X60082317Y-62492833D01*
X60108674Y-62489999D01*
X60124626Y-62489999D01*
X60124647Y-62489998D01*
X60160910Y-62487145D01*
X60316196Y-62442030D01*
X60455374Y-62359721D01*
X60455383Y-62359714D01*
X60569714Y-62245383D01*
X60569721Y-62245374D01*
X60652030Y-62106196D01*
X60652921Y-62103132D01*
X60654274Y-62101013D01*
X60655131Y-62099033D01*
X60655450Y-62099171D01*
X60690526Y-62044245D01*
X60753997Y-62015037D01*
X60823184Y-62024780D01*
G37*
%TD.AperFunction*%
%TA.AperFunction,Conductor*%
G36*
X67006942Y-60580185D02*
G01*
X67027584Y-60596819D01*
X67115139Y-60684374D01*
X67115160Y-60684397D01*
X67200719Y-60769956D01*
X67234204Y-60831279D01*
X67229220Y-60900971D01*
X67219771Y-60920756D01*
X67217969Y-60923802D01*
X67172854Y-61079089D01*
X67172854Y-61079092D01*
X67170000Y-61115355D01*
X67170000Y-61235500D01*
X67150315Y-61302539D01*
X67097511Y-61348294D01*
X67046000Y-61359500D01*
X63620097Y-61359500D01*
X63553058Y-61339815D01*
X63532416Y-61323181D01*
X63058717Y-60849482D01*
X63025232Y-60788159D01*
X63022398Y-60761801D01*
X63022398Y-60684500D01*
X63042083Y-60617461D01*
X63094887Y-60571706D01*
X63146398Y-60560500D01*
X66939903Y-60560500D01*
X67006942Y-60580185D01*
G37*
%TD.AperFunction*%
%TA.AperFunction,Conductor*%
G36*
X69103039Y-59270185D02*
G01*
X69148794Y-59322989D01*
X69160000Y-59374500D01*
X69160000Y-59488880D01*
X69167166Y-59502004D01*
X69170000Y-59528362D01*
X69170000Y-60070000D01*
X69698790Y-60070000D01*
X69697145Y-60049089D01*
X69652031Y-59893805D01*
X69634799Y-59864666D01*
X69617616Y-59796942D01*
X69634802Y-59738419D01*
X69642031Y-59726195D01*
X69643694Y-59722354D01*
X69645802Y-59719820D01*
X69646006Y-59719476D01*
X69646061Y-59719508D01*
X69688385Y-59668646D01*
X69755017Y-59647625D01*
X69822437Y-59665965D01*
X69845177Y-59683919D01*
X71309077Y-61147819D01*
X71342562Y-61209142D01*
X71337578Y-61278834D01*
X71295706Y-61334767D01*
X71230242Y-61359184D01*
X71221396Y-61359500D01*
X69814500Y-61359500D01*
X69747461Y-61339815D01*
X69701706Y-61287011D01*
X69690500Y-61235500D01*
X69690500Y-61115317D01*
X69690499Y-61115302D01*
X69690421Y-61114313D01*
X69687643Y-61079007D01*
X69684833Y-61069336D01*
X69646321Y-60936777D01*
X69642494Y-60923605D01*
X69632132Y-60906085D01*
X69614949Y-60838362D01*
X69632134Y-60779839D01*
X69652030Y-60746197D01*
X69697145Y-60590910D01*
X69698790Y-60570000D01*
X69263787Y-60570000D01*
X69229191Y-60565076D01*
X69150994Y-60542357D01*
X69150991Y-60542356D01*
X69114697Y-60539500D01*
X69114690Y-60539500D01*
X69000097Y-60539500D01*
X68933058Y-60519815D01*
X68912416Y-60503181D01*
X68776819Y-60367584D01*
X68743334Y-60306261D01*
X68740500Y-60279903D01*
X68740500Y-60085317D01*
X68740499Y-60085302D01*
X68737643Y-60049008D01*
X68737642Y-60049002D01*
X68697642Y-59911323D01*
X68692494Y-59893605D01*
X68677266Y-59867857D01*
X68660000Y-59804738D01*
X68660000Y-59798352D01*
X68677269Y-59735229D01*
X68682494Y-59726395D01*
X68723342Y-59585796D01*
X68727642Y-59570997D01*
X68727643Y-59570991D01*
X68728721Y-59557289D01*
X68730500Y-59534690D01*
X68730500Y-59374500D01*
X68750185Y-59307461D01*
X68802989Y-59261706D01*
X68854500Y-59250500D01*
X69036000Y-59250500D01*
X69103039Y-59270185D01*
G37*
%TD.AperFunction*%
%TA.AperFunction,Conductor*%
G36*
X57481949Y-59970713D02*
G01*
X57527704Y-60023517D01*
X57538910Y-60075028D01*
X57538910Y-60159635D01*
X57538911Y-60159648D01*
X57538911Y-60360844D01*
X57520359Y-60424024D01*
X57520964Y-60424357D01*
X57519455Y-60427100D01*
X57519226Y-60427883D01*
X57518080Y-60429602D01*
X57510426Y-60443525D01*
X57460879Y-60492788D01*
X57392564Y-60507444D01*
X57327170Y-60482840D01*
X57314084Y-60471467D01*
X57148607Y-60305990D01*
X57115122Y-60244667D01*
X57120106Y-60174975D01*
X57148603Y-60130632D01*
X57208318Y-60070918D01*
X57241741Y-60013028D01*
X57292308Y-59964813D01*
X57349128Y-59951028D01*
X57414910Y-59951028D01*
X57481949Y-59970713D01*
G37*
%TD.AperFunction*%
%TA.AperFunction,Conductor*%
G36*
X45143555Y-56580540D02*
G01*
X45168206Y-56599645D01*
X45344202Y-56775641D01*
X45344209Y-56775647D01*
X45578256Y-56955238D01*
X45833739Y-57102741D01*
X45833740Y-57102741D01*
X45833743Y-57102743D01*
X45986232Y-57165906D01*
X46105247Y-57215204D01*
X46106298Y-57215639D01*
X46391257Y-57291993D01*
X46683744Y-57330500D01*
X46683751Y-57330500D01*
X46951000Y-57330500D01*
X47018039Y-57350185D01*
X47063794Y-57402989D01*
X47073738Y-57472147D01*
X47044713Y-57535703D01*
X47038681Y-57542181D01*
X45649481Y-58931380D01*
X45649477Y-58931385D01*
X45600154Y-59016817D01*
X45600154Y-59016818D01*
X45570423Y-59068312D01*
X45570423Y-59068313D01*
X45529499Y-59221041D01*
X45529499Y-59221043D01*
X45529499Y-59389144D01*
X45529500Y-59389157D01*
X45529500Y-59739903D01*
X45509815Y-59806942D01*
X45493181Y-59827584D01*
X45487584Y-59833181D01*
X45426261Y-59866666D01*
X45399903Y-59869500D01*
X45394000Y-59869500D01*
X45326961Y-59849815D01*
X45281206Y-59797011D01*
X45270000Y-59745500D01*
X45270000Y-58911210D01*
X45269999Y-58911209D01*
X45249087Y-58912854D01*
X45249081Y-58912855D01*
X45178595Y-58933334D01*
X45108725Y-58933135D01*
X45050055Y-58895193D01*
X45021212Y-58831554D01*
X45020000Y-58814258D01*
X45020000Y-58800000D01*
X44070000Y-58800000D01*
X44070000Y-60376000D01*
X44050315Y-60443039D01*
X43997511Y-60488794D01*
X43946000Y-60500000D01*
X43694000Y-60500000D01*
X43626961Y-60480315D01*
X43581206Y-60427511D01*
X43570000Y-60376000D01*
X43570000Y-58424000D01*
X43589685Y-58356961D01*
X43642489Y-58311206D01*
X43694000Y-58300000D01*
X45020000Y-58300000D01*
X45020000Y-57902172D01*
X45019999Y-57902155D01*
X45013598Y-57842627D01*
X45013596Y-57842620D01*
X44963354Y-57707913D01*
X44963352Y-57707910D01*
X44892707Y-57613541D01*
X44868289Y-57548076D01*
X44883140Y-57479803D01*
X44885242Y-57476107D01*
X44887584Y-57472147D01*
X44912869Y-57429393D01*
X44949972Y-57301685D01*
X44957664Y-57275208D01*
X44957665Y-57275202D01*
X44959570Y-57250993D01*
X44960500Y-57239181D01*
X44960499Y-56740820D01*
X44957665Y-56704796D01*
X44957664Y-56704795D01*
X44957168Y-56698480D01*
X44959739Y-56698277D01*
X44965856Y-56640134D01*
X45009573Y-56585631D01*
X45075817Y-56563415D01*
X45143555Y-56580540D01*
G37*
%TD.AperFunction*%
%TA.AperFunction,Conductor*%
G36*
X92355795Y-59229940D02*
G01*
X92299940Y-59285795D01*
X92260444Y-59354204D01*
X92240000Y-59430504D01*
X92240000Y-59509496D01*
X92260444Y-59585796D01*
X92299940Y-59654205D01*
X92355795Y-59710060D01*
X92373012Y-59720000D01*
X91570136Y-59720000D01*
X91561011Y-59731118D01*
X91558301Y-59761402D01*
X91515438Y-59816578D01*
X91449548Y-59839822D01*
X91442912Y-59840000D01*
X91188352Y-59840000D01*
X91125233Y-59822732D01*
X91116395Y-59817506D01*
X91116393Y-59817505D01*
X91116389Y-59817503D01*
X90960997Y-59772357D01*
X90960991Y-59772356D01*
X90924697Y-59769500D01*
X90924690Y-59769500D01*
X90455310Y-59769500D01*
X90455302Y-59769500D01*
X90419008Y-59772356D01*
X90419002Y-59772357D01*
X90263610Y-59817503D01*
X90263605Y-59817506D01*
X90254766Y-59822732D01*
X90191648Y-59840000D01*
X89973809Y-59840000D01*
X89906770Y-59820315D01*
X89886128Y-59803681D01*
X89859370Y-59776923D01*
X89859362Y-59776917D01*
X89717896Y-59693255D01*
X89717893Y-59693254D01*
X89560073Y-59647402D01*
X89560067Y-59647401D01*
X89523201Y-59644500D01*
X89523194Y-59644500D01*
X89125395Y-59644500D01*
X89058356Y-59624815D01*
X89012601Y-59572011D01*
X89002657Y-59502853D01*
X89023171Y-59454504D01*
X89021609Y-59453581D01*
X89027670Y-59443332D01*
X89046567Y-59411378D01*
X89097635Y-59363696D01*
X89153299Y-59350500D01*
X90792255Y-59350500D01*
X90792271Y-59350501D01*
X90799867Y-59350501D01*
X90957979Y-59350501D01*
X90957981Y-59350501D01*
X90975016Y-59345936D01*
X90981404Y-59344225D01*
X91013496Y-59340000D01*
X91494505Y-59340000D01*
X91505871Y-59324861D01*
X91505918Y-59308723D01*
X91543861Y-59250054D01*
X91607500Y-59221212D01*
X91624794Y-59220000D01*
X92373012Y-59220000D01*
X92355795Y-59229940D01*
G37*
%TD.AperFunction*%
%TA.AperFunction,Conductor*%
G36*
X92643039Y-58370185D02*
G01*
X92688794Y-58422989D01*
X92700000Y-58474500D01*
X92700000Y-58476000D01*
X92680315Y-58543039D01*
X92627511Y-58588794D01*
X92576000Y-58600000D01*
X92017970Y-58600000D01*
X91950931Y-58580315D01*
X91905176Y-58527511D01*
X91895232Y-58458353D01*
X91898197Y-58443901D01*
X91898599Y-58442401D01*
X91934966Y-58382742D01*
X91997815Y-58352216D01*
X92018372Y-58350500D01*
X92576000Y-58350500D01*
X92643039Y-58370185D01*
G37*
%TD.AperFunction*%
%TA.AperFunction,Conductor*%
G36*
X89703039Y-56779685D02*
G01*
X89748794Y-56832489D01*
X89760000Y-56884000D01*
X89760000Y-57814504D01*
X89831348Y-57793775D01*
X89879608Y-57757757D01*
X89922776Y-57750000D01*
X90429591Y-57750000D01*
X90439318Y-57750382D01*
X90439516Y-57750397D01*
X90440819Y-57750500D01*
X90604288Y-57750499D01*
X90671327Y-57770183D01*
X90717082Y-57822987D01*
X90727026Y-57892145D01*
X90724064Y-57906585D01*
X90709499Y-57960944D01*
X90709499Y-57960946D01*
X90709499Y-58018826D01*
X90689814Y-58085865D01*
X90673187Y-58106501D01*
X90666514Y-58113175D01*
X90605193Y-58146664D01*
X90578826Y-58149500D01*
X89282000Y-58149500D01*
X89214961Y-58129815D01*
X89169206Y-58077011D01*
X89158000Y-58025500D01*
X89158000Y-57951871D01*
X89158785Y-57951871D01*
X89175041Y-57887139D01*
X89211425Y-57853001D01*
X89210453Y-57851706D01*
X89222234Y-57842859D01*
X89225995Y-57839332D01*
X89227239Y-57839102D01*
X89260000Y-57814504D01*
X89260000Y-57508352D01*
X89277267Y-57445233D01*
X89282494Y-57436395D01*
X89283020Y-57434587D01*
X89327642Y-57280997D01*
X89327643Y-57280991D01*
X89328098Y-57275208D01*
X89330500Y-57244690D01*
X89330500Y-56884000D01*
X89350185Y-56816961D01*
X89402989Y-56771206D01*
X89454500Y-56760000D01*
X89636000Y-56760000D01*
X89703039Y-56779685D01*
G37*
%TD.AperFunction*%
%TA.AperFunction,Conductor*%
G36*
X58008615Y-52950185D02*
G01*
X58054370Y-53002989D01*
X58065576Y-53054500D01*
X58065576Y-53177905D01*
X58065575Y-53177923D01*
X58065575Y-53343629D01*
X58065574Y-53343629D01*
X58106499Y-53496360D01*
X58128672Y-53534763D01*
X58128673Y-53534767D01*
X58128674Y-53534767D01*
X58178355Y-53620819D01*
X58185555Y-53633289D01*
X58185557Y-53633292D01*
X58304425Y-53752160D01*
X58304431Y-53752165D01*
X59331249Y-54778983D01*
X59364734Y-54840306D01*
X59359750Y-54909998D01*
X59331249Y-54954345D01*
X58284646Y-56000949D01*
X58172841Y-56112753D01*
X58172839Y-56112755D01*
X58149120Y-56153840D01*
X58134561Y-56179057D01*
X58093783Y-56249686D01*
X58053181Y-56401210D01*
X58016818Y-56460868D01*
X57953971Y-56491397D01*
X57933408Y-56493114D01*
X57915705Y-56493114D01*
X57762979Y-56534036D01*
X57721044Y-56558248D01*
X57721043Y-56558247D01*
X57626050Y-56613091D01*
X57626045Y-56613095D01*
X57351869Y-56887272D01*
X57290546Y-56920757D01*
X57220854Y-56915773D01*
X57176507Y-56887272D01*
X56087590Y-55798355D01*
X56087588Y-55798352D01*
X55968717Y-55679481D01*
X55968709Y-55679475D01*
X55857607Y-55615331D01*
X55857606Y-55615330D01*
X55857606Y-55615331D01*
X55831785Y-55600423D01*
X55679057Y-55559499D01*
X55520943Y-55559499D01*
X55513347Y-55559499D01*
X55513331Y-55559500D01*
X54913828Y-55559500D01*
X54913812Y-55559499D01*
X54906216Y-55559499D01*
X54748101Y-55559499D01*
X54671737Y-55579961D01*
X54595372Y-55600423D01*
X54595369Y-55600425D01*
X54493191Y-55659416D01*
X54425291Y-55675887D01*
X54359264Y-55653034D01*
X54343512Y-55639709D01*
X54226303Y-55522500D01*
X54192818Y-55461177D01*
X54197802Y-55391485D01*
X54239674Y-55335552D01*
X54300102Y-55311599D01*
X54367824Y-55303969D01*
X54367827Y-55303968D01*
X54367830Y-55303968D01*
X54538097Y-55244389D01*
X54690837Y-55148416D01*
X54818391Y-55020862D01*
X54914364Y-54868122D01*
X54918914Y-54855119D01*
X54959635Y-54798342D01*
X55024587Y-54772594D01*
X55076911Y-54779031D01*
X55211500Y-54826126D01*
X55211506Y-54826127D01*
X55211508Y-54826128D01*
X55211509Y-54826128D01*
X55211513Y-54826129D01*
X55390759Y-54846325D01*
X55390763Y-54846325D01*
X55390767Y-54846325D01*
X55570012Y-54826129D01*
X55570015Y-54826128D01*
X55570018Y-54826128D01*
X55740285Y-54766549D01*
X55893025Y-54670576D01*
X56020579Y-54543022D01*
X56116552Y-54390282D01*
X56176131Y-54220015D01*
X56177328Y-54209393D01*
X56196328Y-54040763D01*
X56196328Y-54040756D01*
X56191554Y-53998384D01*
X56203609Y-53929562D01*
X56250958Y-53878183D01*
X56314774Y-53860501D01*
X56459054Y-53860501D01*
X56459057Y-53860501D01*
X56611785Y-53819577D01*
X56665935Y-53788313D01*
X56748716Y-53740520D01*
X56860520Y-53628716D01*
X56860520Y-53628714D01*
X56870724Y-53618511D01*
X56870727Y-53618506D01*
X57522417Y-52966819D01*
X57583740Y-52933334D01*
X57610098Y-52930500D01*
X57941576Y-52930500D01*
X58008615Y-52950185D01*
G37*
%TD.AperFunction*%
%TA.AperFunction,Conductor*%
G36*
X71462539Y-49960185D02*
G01*
X71508294Y-50012989D01*
X71519500Y-50064500D01*
X71519500Y-50902870D01*
X71519501Y-50902876D01*
X71525908Y-50962483D01*
X71576202Y-51097328D01*
X71576206Y-51097335D01*
X71662452Y-51212544D01*
X71662455Y-51212547D01*
X71777664Y-51298793D01*
X71777671Y-51298797D01*
X71790774Y-51303684D01*
X71912517Y-51349091D01*
X71972127Y-51355500D01*
X72494902Y-51355499D01*
X72561941Y-51375183D01*
X72582583Y-51391818D01*
X73443181Y-52252416D01*
X73476666Y-52313739D01*
X73479500Y-52340097D01*
X73479500Y-53326678D01*
X73459815Y-53393717D01*
X73407011Y-53439472D01*
X73337853Y-53449416D01*
X73281190Y-53425945D01*
X73262093Y-53411649D01*
X73262086Y-53411645D01*
X73127379Y-53361403D01*
X73127372Y-53361401D01*
X73067844Y-53355000D01*
X72770000Y-53355000D01*
X72770000Y-55105000D01*
X72785201Y-55120201D01*
X72818686Y-55181524D01*
X72813702Y-55251216D01*
X72785202Y-55295563D01*
X72617582Y-55463182D01*
X72556261Y-55496666D01*
X72529903Y-55499500D01*
X72409596Y-55499500D01*
X72342557Y-55479815D01*
X72321915Y-55463181D01*
X72317603Y-55458869D01*
X72317595Y-55458863D01*
X72179393Y-55377131D01*
X72179388Y-55377129D01*
X72079386Y-55348076D01*
X72020500Y-55310470D01*
X71991294Y-55246998D01*
X72001040Y-55177811D01*
X72046644Y-55124876D01*
X72113627Y-55105001D01*
X72113981Y-55105000D01*
X72270000Y-55105000D01*
X72270000Y-54480000D01*
X71520000Y-54480000D01*
X71520000Y-54652844D01*
X71526401Y-54712372D01*
X71526403Y-54712379D01*
X71576645Y-54847086D01*
X71576649Y-54847093D01*
X71662809Y-54962187D01*
X71662812Y-54962190D01*
X71777906Y-55048350D01*
X71777913Y-55048354D01*
X71887743Y-55089318D01*
X71943677Y-55131189D01*
X71968094Y-55196653D01*
X71953242Y-55264926D01*
X71903837Y-55314332D01*
X71844410Y-55329500D01*
X71490830Y-55329500D01*
X71490808Y-55329501D01*
X71454794Y-55332335D01*
X71300611Y-55377129D01*
X71300606Y-55377131D01*
X71162404Y-55458863D01*
X71162396Y-55458869D01*
X71048869Y-55572396D01*
X71048863Y-55572404D01*
X70967131Y-55710606D01*
X70967129Y-55710611D01*
X70922335Y-55864791D01*
X70922334Y-55864797D01*
X70919500Y-55900811D01*
X70919500Y-56045040D01*
X70899815Y-56112079D01*
X70847011Y-56157834D01*
X70777853Y-56167778D01*
X70714297Y-56138753D01*
X70707819Y-56132721D01*
X70685383Y-56110285D01*
X70685374Y-56110278D01*
X70546193Y-56027967D01*
X70546190Y-56027965D01*
X70400001Y-55985493D01*
X70400000Y-55985494D01*
X70400000Y-56705500D01*
X70380315Y-56772539D01*
X70327511Y-56818294D01*
X70276000Y-56829500D01*
X70094500Y-56829500D01*
X70027461Y-56809815D01*
X69981706Y-56757011D01*
X69970500Y-56705500D01*
X69970500Y-56555317D01*
X69970499Y-56555302D01*
X69970365Y-56553605D01*
X69967643Y-56519007D01*
X69967207Y-56517507D01*
X69922495Y-56363608D01*
X69922492Y-56363600D01*
X69917266Y-56354763D01*
X69900000Y-56291645D01*
X69900000Y-55985494D01*
X69899998Y-55985493D01*
X69753809Y-56027965D01*
X69753806Y-56027967D01*
X69733608Y-56039912D01*
X69665884Y-56057092D01*
X69607370Y-56039910D01*
X69586397Y-56027507D01*
X69586390Y-56027504D01*
X69430997Y-55982357D01*
X69430991Y-55982356D01*
X69394697Y-55979500D01*
X69394690Y-55979500D01*
X68985310Y-55979500D01*
X68985302Y-55979500D01*
X68949008Y-55982356D01*
X68949002Y-55982357D01*
X68841549Y-56013576D01*
X68820838Y-56017720D01*
X68670752Y-56034630D01*
X68670747Y-56034631D01*
X68500478Y-56094210D01*
X68347737Y-56190184D01*
X68220184Y-56317737D01*
X68124211Y-56470476D01*
X68064631Y-56640745D01*
X68064630Y-56640750D01*
X68055771Y-56719383D01*
X68028705Y-56783797D01*
X67971110Y-56823353D01*
X67932551Y-56829500D01*
X67613801Y-56829500D01*
X67546762Y-56809815D01*
X67501007Y-56757011D01*
X67491063Y-56687853D01*
X67520088Y-56624297D01*
X67526120Y-56617819D01*
X67576891Y-56567047D01*
X67576896Y-56567042D01*
X67756488Y-56332994D01*
X67903993Y-56077507D01*
X68016889Y-55804952D01*
X68093243Y-55519993D01*
X68131750Y-55227506D01*
X68131750Y-54932494D01*
X68093243Y-54640007D01*
X68016889Y-54355048D01*
X67903993Y-54082493D01*
X67896886Y-54070184D01*
X67756488Y-53827006D01*
X67576897Y-53592959D01*
X67576891Y-53592952D01*
X67368297Y-53384358D01*
X67368290Y-53384352D01*
X67134243Y-53204761D01*
X66878760Y-53057258D01*
X66878750Y-53057254D01*
X66606211Y-52944364D01*
X66606204Y-52944362D01*
X66606205Y-52944362D01*
X66606202Y-52944361D01*
X66460963Y-52905444D01*
X66458271Y-52903803D01*
X66449933Y-52902489D01*
X66416583Y-52893553D01*
X66321243Y-52868007D01*
X66267367Y-52860914D01*
X66031489Y-52829859D01*
X65967593Y-52801592D01*
X65929122Y-52743268D01*
X65928291Y-52673403D01*
X65959991Y-52619242D01*
X66049180Y-52530053D01*
X66110501Y-52496570D01*
X66180193Y-52501554D01*
X66202827Y-52512740D01*
X66349743Y-52605054D01*
X66516441Y-52663384D01*
X66520013Y-52664634D01*
X66699261Y-52684830D01*
X66699265Y-52684830D01*
X66699269Y-52684830D01*
X66878514Y-52664634D01*
X66878517Y-52664633D01*
X66878520Y-52664633D01*
X67048787Y-52605054D01*
X67152320Y-52540000D01*
X68086302Y-52540000D01*
X68106062Y-52791072D01*
X68164853Y-53035956D01*
X68261230Y-53268631D01*
X68392818Y-53483362D01*
X68393516Y-53484179D01*
X69013671Y-52864023D01*
X69026609Y-52895258D01*
X69108687Y-53018097D01*
X69213153Y-53122563D01*
X69335992Y-53204641D01*
X69367224Y-53217577D01*
X68747069Y-53837732D01*
X68747069Y-53837733D01*
X68747884Y-53838429D01*
X68962618Y-53970019D01*
X69195293Y-54066396D01*
X69440177Y-54125187D01*
X69691250Y-54144947D01*
X69942322Y-54125187D01*
X70187206Y-54066396D01*
X70419881Y-53970019D01*
X70634611Y-53838432D01*
X70634613Y-53838430D01*
X70635430Y-53837732D01*
X70604853Y-53807155D01*
X71520000Y-53807155D01*
X71520000Y-53980000D01*
X72270000Y-53980000D01*
X72270000Y-53355000D01*
X71972155Y-53355000D01*
X71912627Y-53361401D01*
X71912620Y-53361403D01*
X71777913Y-53411645D01*
X71777906Y-53411649D01*
X71662812Y-53497809D01*
X71662809Y-53497812D01*
X71576649Y-53612906D01*
X71576645Y-53612913D01*
X71526403Y-53747620D01*
X71526401Y-53747627D01*
X71520000Y-53807155D01*
X70604853Y-53807155D01*
X70015275Y-53217578D01*
X70046508Y-53204641D01*
X70169347Y-53122563D01*
X70273813Y-53018097D01*
X70355891Y-52895258D01*
X70368828Y-52864025D01*
X70988982Y-53484180D01*
X70989680Y-53483363D01*
X70989682Y-53483361D01*
X71121269Y-53268631D01*
X71217646Y-53035956D01*
X71276437Y-52791072D01*
X71296197Y-52540000D01*
X71276437Y-52288927D01*
X71217646Y-52044043D01*
X71121269Y-51811368D01*
X70989679Y-51596634D01*
X70988983Y-51595819D01*
X70988982Y-51595819D01*
X70368827Y-52215973D01*
X70355891Y-52184742D01*
X70273813Y-52061903D01*
X70169347Y-51957437D01*
X70046508Y-51875359D01*
X70015275Y-51862421D01*
X70635429Y-51242266D01*
X70634612Y-51241568D01*
X70419881Y-51109980D01*
X70187206Y-51013603D01*
X69942322Y-50954812D01*
X69691250Y-50935052D01*
X69440177Y-50954812D01*
X69195293Y-51013603D01*
X68962618Y-51109980D01*
X68747887Y-51241567D01*
X68747069Y-51242266D01*
X69367224Y-51862421D01*
X69335992Y-51875359D01*
X69213153Y-51957437D01*
X69108687Y-52061903D01*
X69026609Y-52184742D01*
X69013671Y-52215974D01*
X68393516Y-51595819D01*
X68392817Y-51596637D01*
X68261230Y-51811368D01*
X68164853Y-52044043D01*
X68106062Y-52288927D01*
X68086302Y-52540000D01*
X67152320Y-52540000D01*
X67201527Y-52509081D01*
X67329081Y-52381527D01*
X67425054Y-52228787D01*
X67484633Y-52058520D01*
X67486264Y-52044043D01*
X67504830Y-51879268D01*
X67504830Y-51879261D01*
X67487297Y-51723647D01*
X67499352Y-51654825D01*
X67522833Y-51622086D01*
X69168102Y-49976819D01*
X69229425Y-49943334D01*
X69255783Y-49940500D01*
X71395500Y-49940500D01*
X71462539Y-49960185D01*
G37*
%TD.AperFunction*%
%TA.AperFunction,Conductor*%
G36*
X80882222Y-49125211D02*
G01*
X80938155Y-49167083D01*
X80962572Y-49232547D01*
X80953449Y-49288845D01*
X80864377Y-49503885D01*
X80864377Y-49503887D01*
X80805567Y-49748848D01*
X80785801Y-50000000D01*
X80805567Y-50251151D01*
X80864376Y-50496110D01*
X80960783Y-50728859D01*
X81092410Y-50943653D01*
X81092411Y-50943656D01*
X81102954Y-50956000D01*
X81256026Y-51135224D01*
X81380538Y-51241567D01*
X81447593Y-51298838D01*
X81447596Y-51298839D01*
X81662390Y-51430466D01*
X81751717Y-51467466D01*
X81895139Y-51526873D01*
X82140102Y-51585683D01*
X82391250Y-51605449D01*
X82497467Y-51597089D01*
X82565842Y-51611453D01*
X82615599Y-51660504D01*
X82630938Y-51728669D01*
X82606989Y-51794306D01*
X82594875Y-51808388D01*
X81325084Y-53078181D01*
X81263761Y-53111666D01*
X81237403Y-53114500D01*
X80644144Y-53114500D01*
X80542223Y-53124913D01*
X80377077Y-53179637D01*
X80377066Y-53179642D01*
X80229000Y-53270971D01*
X80228996Y-53270974D01*
X80105974Y-53393996D01*
X80105971Y-53394000D01*
X80014642Y-53542066D01*
X80014637Y-53542077D01*
X79959913Y-53707223D01*
X79949500Y-53809144D01*
X79949500Y-54395855D01*
X79959913Y-54497776D01*
X80014637Y-54662922D01*
X80014642Y-54662933D01*
X80105971Y-54810999D01*
X80105974Y-54811003D01*
X80228996Y-54934025D01*
X80229000Y-54934028D01*
X80229703Y-54934462D01*
X80230083Y-54934885D01*
X80234664Y-54938507D01*
X80234045Y-54939289D01*
X80276428Y-54986410D01*
X80287649Y-55055372D01*
X80259806Y-55119454D01*
X80234544Y-55141342D01*
X80234664Y-55141493D01*
X80231315Y-55144140D01*
X80229703Y-55145538D01*
X80229000Y-55145971D01*
X80228996Y-55145974D01*
X80105974Y-55268996D01*
X80105971Y-55269000D01*
X80014639Y-55417071D01*
X80014637Y-55417075D01*
X80006251Y-55442383D01*
X79966477Y-55499827D01*
X79901961Y-55526648D01*
X79853953Y-55522453D01*
X79820915Y-55512855D01*
X79820912Y-55512854D01*
X79800000Y-55511209D01*
X79800000Y-56345500D01*
X79780315Y-56412539D01*
X79727511Y-56458294D01*
X79676000Y-56469500D01*
X79315302Y-56469500D01*
X79279008Y-56472356D01*
X79279002Y-56472357D01*
X79123608Y-56517504D01*
X79123600Y-56517507D01*
X79114767Y-56522732D01*
X79051646Y-56540000D01*
X78977066Y-56540000D01*
X78913945Y-56522732D01*
X78907646Y-56519007D01*
X78822890Y-56468882D01*
X78822885Y-56468880D01*
X78671133Y-56424792D01*
X78671120Y-56424790D01*
X78635670Y-56422000D01*
X78635663Y-56422000D01*
X78460098Y-56422000D01*
X78393059Y-56402315D01*
X78372417Y-56385681D01*
X78026736Y-56040000D01*
X78745496Y-56040000D01*
X79300000Y-56040000D01*
X79300000Y-55511210D01*
X79299999Y-55511209D01*
X79279087Y-55512854D01*
X79279081Y-55512855D01*
X79123809Y-55557966D01*
X79123804Y-55557968D01*
X78984625Y-55640278D01*
X78984616Y-55640285D01*
X78870285Y-55754616D01*
X78870278Y-55754625D01*
X78787968Y-55893804D01*
X78745496Y-56040000D01*
X78026736Y-56040000D01*
X77337590Y-55350855D01*
X77337588Y-55350852D01*
X77218717Y-55231981D01*
X77218709Y-55231975D01*
X77109805Y-55169100D01*
X77109804Y-55169099D01*
X77109804Y-55169100D01*
X77081785Y-55152923D01*
X77055840Y-55145971D01*
X76929057Y-55111999D01*
X76770943Y-55111999D01*
X76763347Y-55111999D01*
X76763331Y-55112000D01*
X76609595Y-55112000D01*
X76542556Y-55092315D01*
X76521918Y-55075685D01*
X76467598Y-55021365D01*
X76466747Y-55020862D01*
X76367533Y-54962187D01*
X76329393Y-54939631D01*
X76329392Y-54939630D01*
X76329391Y-54939630D01*
X76301377Y-54931491D01*
X76242492Y-54893884D01*
X76213287Y-54830411D01*
X76212754Y-54826297D01*
X76205369Y-54760750D01*
X76205368Y-54760745D01*
X76188444Y-54712379D01*
X76167612Y-54652844D01*
X77520000Y-54652844D01*
X77526401Y-54712372D01*
X77526403Y-54712379D01*
X77576645Y-54847086D01*
X77576649Y-54847093D01*
X77662809Y-54962187D01*
X77662812Y-54962190D01*
X77777906Y-55048350D01*
X77777913Y-55048354D01*
X77912620Y-55098596D01*
X77912627Y-55098598D01*
X77972155Y-55104999D01*
X77972172Y-55105000D01*
X78270000Y-55105000D01*
X78770000Y-55105000D01*
X79067828Y-55105000D01*
X79067844Y-55104999D01*
X79127372Y-55098598D01*
X79127379Y-55098596D01*
X79262086Y-55048354D01*
X79262093Y-55048350D01*
X79377187Y-54962190D01*
X79377190Y-54962187D01*
X79463350Y-54847093D01*
X79463354Y-54847086D01*
X79513596Y-54712379D01*
X79513598Y-54712372D01*
X79519999Y-54652844D01*
X79520000Y-54652827D01*
X79520000Y-54480000D01*
X78770000Y-54480000D01*
X78770000Y-55105000D01*
X78270000Y-55105000D01*
X78270000Y-54480000D01*
X77520000Y-54480000D01*
X77520000Y-54652844D01*
X76167612Y-54652844D01*
X76145789Y-54590478D01*
X76144021Y-54587665D01*
X76087540Y-54497775D01*
X76049816Y-54437738D01*
X75922262Y-54310184D01*
X75837471Y-54256906D01*
X75769523Y-54214211D01*
X75599254Y-54154631D01*
X75599249Y-54154630D01*
X75420004Y-54134435D01*
X75419996Y-54134435D01*
X75240750Y-54154630D01*
X75240745Y-54154631D01*
X75070476Y-54214211D01*
X74917737Y-54310184D01*
X74892181Y-54335741D01*
X74830858Y-54369226D01*
X74761166Y-54364242D01*
X74705233Y-54322370D01*
X74680816Y-54256906D01*
X74680500Y-54248060D01*
X74680500Y-53807155D01*
X77520000Y-53807155D01*
X77520000Y-53980000D01*
X78270000Y-53980000D01*
X78770000Y-53980000D01*
X79520000Y-53980000D01*
X79520000Y-53807172D01*
X79519999Y-53807155D01*
X79513598Y-53747627D01*
X79513596Y-53747620D01*
X79463354Y-53612913D01*
X79463350Y-53612906D01*
X79377190Y-53497812D01*
X79377187Y-53497809D01*
X79262093Y-53411649D01*
X79262086Y-53411645D01*
X79127379Y-53361403D01*
X79127372Y-53361401D01*
X79067844Y-53355000D01*
X78770000Y-53355000D01*
X78770000Y-53980000D01*
X78270000Y-53980000D01*
X78270000Y-53355000D01*
X77972155Y-53355000D01*
X77912627Y-53361401D01*
X77912620Y-53361403D01*
X77777913Y-53411645D01*
X77777906Y-53411649D01*
X77662812Y-53497809D01*
X77662809Y-53497812D01*
X77576649Y-53612906D01*
X77576645Y-53612913D01*
X77526403Y-53747620D01*
X77526401Y-53747627D01*
X77520000Y-53807155D01*
X74680500Y-53807155D01*
X74680500Y-51960945D01*
X74680500Y-51960943D01*
X74665582Y-51905268D01*
X74639577Y-51808215D01*
X74601092Y-51741558D01*
X74601092Y-51741556D01*
X74560524Y-51671290D01*
X74560521Y-51671286D01*
X74560520Y-51671284D01*
X74448716Y-51559480D01*
X74448715Y-51559479D01*
X74444385Y-51555149D01*
X74444374Y-51555139D01*
X74181416Y-51292181D01*
X74147931Y-51230858D01*
X74152915Y-51161166D01*
X74194787Y-51105233D01*
X74260251Y-51080816D01*
X74269097Y-51080500D01*
X77501535Y-51080500D01*
X77568574Y-51100185D01*
X77600800Y-51130187D01*
X77662454Y-51212546D01*
X77701221Y-51241567D01*
X77777664Y-51298793D01*
X77777671Y-51298797D01*
X77912517Y-51349091D01*
X77912516Y-51349091D01*
X77919444Y-51349835D01*
X77972127Y-51355500D01*
X79067872Y-51355499D01*
X79127483Y-51349091D01*
X79262331Y-51298796D01*
X79377546Y-51212546D01*
X79463796Y-51097331D01*
X79514091Y-50962483D01*
X79520500Y-50902873D01*
X79520499Y-50064500D01*
X79540183Y-49997462D01*
X79592987Y-49951707D01*
X79644499Y-49940501D01*
X79794740Y-49940501D01*
X79794743Y-49940501D01*
X79947471Y-49899577D01*
X80016886Y-49859500D01*
X80084402Y-49820520D01*
X80196206Y-49708716D01*
X80196206Y-49708714D01*
X80206410Y-49698511D01*
X80206413Y-49698506D01*
X80751210Y-49153710D01*
X80812530Y-49120227D01*
X80882222Y-49125211D01*
G37*
%TD.AperFunction*%
%TA.AperFunction,Conductor*%
G36*
X45685496Y-51355791D02*
G01*
X45701940Y-51369605D01*
X46330590Y-51998256D01*
X46950153Y-52617819D01*
X46983638Y-52679142D01*
X46978654Y-52748834D01*
X46936782Y-52804767D01*
X46871318Y-52829184D01*
X46862472Y-52829500D01*
X46683736Y-52829500D01*
X46405335Y-52866153D01*
X46391257Y-52868007D01*
X46262568Y-52902489D01*
X46106298Y-52944361D01*
X46106288Y-52944364D01*
X45833749Y-53057254D01*
X45833739Y-53057258D01*
X45578256Y-53204761D01*
X45344209Y-53384352D01*
X45344202Y-53384358D01*
X45135608Y-53592952D01*
X45135602Y-53592959D01*
X44956011Y-53827006D01*
X44808508Y-54082489D01*
X44808504Y-54082499D01*
X44695614Y-54355038D01*
X44695611Y-54355048D01*
X44631577Y-54594030D01*
X44619258Y-54640004D01*
X44619256Y-54640015D01*
X44580750Y-54932486D01*
X44580750Y-55227513D01*
X44610716Y-55455118D01*
X44619257Y-55519993D01*
X44695611Y-55804951D01*
X44695614Y-55804961D01*
X44808504Y-56077500D01*
X44808507Y-56077508D01*
X44813375Y-56085939D01*
X44829845Y-56153840D01*
X44806991Y-56219866D01*
X44752069Y-56263055D01*
X44682515Y-56269694D01*
X44642865Y-56254668D01*
X44579394Y-56217131D01*
X44579388Y-56217129D01*
X44425208Y-56172335D01*
X44425194Y-56172333D01*
X44404767Y-56170725D01*
X44339480Y-56145840D01*
X44298011Y-56089607D01*
X44290500Y-56047108D01*
X44290500Y-53540096D01*
X44310185Y-53473057D01*
X44326815Y-53452419D01*
X44908535Y-52870698D01*
X44969856Y-52837215D01*
X44982311Y-52835163D01*
X45069255Y-52825368D01*
X45239522Y-52765789D01*
X45392262Y-52669816D01*
X45519816Y-52542262D01*
X45615789Y-52389522D01*
X45675368Y-52219255D01*
X45693097Y-52061903D01*
X45695565Y-52040003D01*
X45695565Y-52039996D01*
X45675369Y-51860750D01*
X45675368Y-51860745D01*
X45664610Y-51830000D01*
X45615789Y-51690478D01*
X45603732Y-51671290D01*
X45573029Y-51622426D01*
X45519816Y-51537738D01*
X45519810Y-51537732D01*
X45517314Y-51534602D01*
X45516328Y-51532188D01*
X45516111Y-51531842D01*
X45516171Y-51531803D01*
X45490905Y-51469916D01*
X45503659Y-51401220D01*
X45551529Y-51350325D01*
X45619315Y-51333390D01*
X45685496Y-51355791D01*
G37*
%TD.AperFunction*%
%TA.AperFunction,Conductor*%
G36*
X87222045Y-51760185D02*
G01*
X87267800Y-51812989D01*
X87277744Y-51882147D01*
X87269567Y-51911953D01*
X87214853Y-52044043D01*
X87156062Y-52288927D01*
X87136302Y-52540000D01*
X87156062Y-52791072D01*
X87214853Y-53035956D01*
X87311230Y-53268631D01*
X87442818Y-53483362D01*
X87443516Y-53484179D01*
X88063671Y-52864023D01*
X88076609Y-52895258D01*
X88158687Y-53018097D01*
X88263153Y-53122563D01*
X88385992Y-53204641D01*
X88417223Y-53217577D01*
X87797069Y-53837732D01*
X87797069Y-53837733D01*
X87797884Y-53838429D01*
X88012618Y-53970019D01*
X88245293Y-54066396D01*
X88490177Y-54125187D01*
X88741250Y-54144947D01*
X88992322Y-54125187D01*
X89237206Y-54066396D01*
X89469881Y-53970019D01*
X89684612Y-53838431D01*
X89684617Y-53838428D01*
X89714967Y-53812507D01*
X89778728Y-53783935D01*
X89847814Y-53794372D01*
X89900291Y-53840502D01*
X89919500Y-53906795D01*
X89919500Y-54019169D01*
X89919501Y-54019191D01*
X89922335Y-54055205D01*
X89967129Y-54209388D01*
X89967131Y-54209393D01*
X90048863Y-54347595D01*
X90048869Y-54347603D01*
X90162396Y-54461130D01*
X90162400Y-54461133D01*
X90162402Y-54461135D01*
X90300607Y-54542869D01*
X90323173Y-54549425D01*
X90347262Y-54556424D01*
X90406148Y-54594030D01*
X90435354Y-54657503D01*
X90425608Y-54726689D01*
X90380004Y-54779624D01*
X90313021Y-54799499D01*
X90312667Y-54799500D01*
X88116670Y-54799500D01*
X88116654Y-54799499D01*
X88109058Y-54799499D01*
X87950943Y-54799499D01*
X87874579Y-54819961D01*
X87798214Y-54840423D01*
X87798209Y-54840426D01*
X87661290Y-54919475D01*
X87661282Y-54919481D01*
X87393431Y-55187332D01*
X87332108Y-55220817D01*
X87262416Y-55215833D01*
X87206483Y-55173961D01*
X87182066Y-55108497D01*
X87181750Y-55099651D01*
X87181750Y-54932500D01*
X87181749Y-54932486D01*
X87171563Y-54855119D01*
X87143243Y-54640007D01*
X87066889Y-54355048D01*
X86953993Y-54082493D01*
X86946886Y-54070184D01*
X86806488Y-53827006D01*
X86626897Y-53592959D01*
X86626891Y-53592952D01*
X86418297Y-53384358D01*
X86418290Y-53384352D01*
X86184243Y-53204761D01*
X85928760Y-53057258D01*
X85928750Y-53057254D01*
X85656211Y-52944364D01*
X85656204Y-52944362D01*
X85656202Y-52944361D01*
X85371243Y-52868007D01*
X85322363Y-52861571D01*
X85078763Y-52829500D01*
X85078756Y-52829500D01*
X84783744Y-52829500D01*
X84783736Y-52829500D01*
X84505335Y-52866153D01*
X84491257Y-52868007D01*
X84362568Y-52902489D01*
X84206298Y-52944361D01*
X84206288Y-52944364D01*
X83933749Y-53057254D01*
X83933739Y-53057258D01*
X83678256Y-53204761D01*
X83444209Y-53384352D01*
X83444202Y-53384358D01*
X83235608Y-53592952D01*
X83235602Y-53592959D01*
X83056011Y-53827006D01*
X82908508Y-54082489D01*
X82908504Y-54082499D01*
X82795614Y-54355038D01*
X82795611Y-54355048D01*
X82731577Y-54594030D01*
X82719258Y-54640004D01*
X82719256Y-54640015D01*
X82680750Y-54932486D01*
X82680750Y-55227499D01*
X82680751Y-55227516D01*
X82702648Y-55393839D01*
X82691882Y-55462874D01*
X82645502Y-55515130D01*
X82578233Y-55534015D01*
X82511433Y-55513534D01*
X82510819Y-55513126D01*
X82421634Y-55453535D01*
X82305843Y-55405573D01*
X82251440Y-55361732D01*
X82247758Y-55356109D01*
X82194028Y-55269000D01*
X82194025Y-55268996D01*
X82071004Y-55145975D01*
X82071003Y-55145974D01*
X82070301Y-55145541D01*
X82069921Y-55145118D01*
X82065336Y-55141493D01*
X82065955Y-55140709D01*
X82023575Y-55093598D01*
X82012349Y-55024636D01*
X82040188Y-54960552D01*
X82065455Y-54938657D01*
X82065336Y-54938507D01*
X82068687Y-54935856D01*
X82070299Y-54934459D01*
X82071003Y-54934026D01*
X82194026Y-54811003D01*
X82285362Y-54662925D01*
X82340087Y-54497775D01*
X82350500Y-54395848D01*
X82350500Y-53809152D01*
X82350499Y-53809144D01*
X82350496Y-53809076D01*
X82350500Y-53809059D01*
X82350500Y-53805995D01*
X82351232Y-53805995D01*
X82366740Y-53741121D01*
X82386650Y-53715083D01*
X84324917Y-51776819D01*
X84386240Y-51743334D01*
X84412598Y-51740500D01*
X87155006Y-51740500D01*
X87222045Y-51760185D01*
G37*
%TD.AperFunction*%
%TA.AperFunction,Conductor*%
G36*
X51145269Y-50190185D02*
G01*
X51191024Y-50242989D01*
X51200968Y-50312147D01*
X51171943Y-50375703D01*
X51165911Y-50382181D01*
X50923129Y-50624963D01*
X50899503Y-50652625D01*
X50899496Y-50652635D01*
X50821600Y-50794326D01*
X50821598Y-50794333D01*
X50808532Y-50845220D01*
X50772793Y-50905258D01*
X50710269Y-50936442D01*
X50678701Y-50937999D01*
X50641251Y-50935052D01*
X50390177Y-50954812D01*
X50145293Y-51013603D01*
X49912618Y-51109980D01*
X49697887Y-51241567D01*
X49697069Y-51242266D01*
X50317224Y-51862421D01*
X50285992Y-51875359D01*
X50163153Y-51957437D01*
X50058687Y-52061903D01*
X49976609Y-52184742D01*
X49963671Y-52215974D01*
X49343516Y-51595819D01*
X49342817Y-51596637D01*
X49211230Y-51811368D01*
X49114853Y-52044043D01*
X49056062Y-52288927D01*
X49036302Y-52540000D01*
X49049696Y-52710181D01*
X49035332Y-52778558D01*
X48986281Y-52828315D01*
X48918115Y-52843654D01*
X48852478Y-52819705D01*
X48838397Y-52807591D01*
X46412987Y-50382182D01*
X46379502Y-50320859D01*
X46384486Y-50251167D01*
X46426358Y-50195234D01*
X46491822Y-50170817D01*
X46500668Y-50170501D01*
X46560968Y-50170501D01*
X46560984Y-50170500D01*
X51078230Y-50170500D01*
X51145269Y-50190185D01*
G37*
%TD.AperFunction*%
%TA.AperFunction,Conductor*%
G36*
X92424204Y-51109556D02*
G01*
X92500504Y-51130000D01*
X92645911Y-51130000D01*
X92688794Y-51179489D01*
X92700000Y-51231000D01*
X92700000Y-51825500D01*
X92680315Y-51892539D01*
X92627511Y-51938294D01*
X92576000Y-51949500D01*
X91884298Y-51949500D01*
X91847432Y-51952401D01*
X91708224Y-51992845D01*
X91638355Y-51992645D01*
X91579685Y-51954702D01*
X91550842Y-51891064D01*
X91554554Y-51839173D01*
X91569013Y-51789405D01*
X91606619Y-51730519D01*
X91670092Y-51701313D01*
X91688089Y-51700000D01*
X92200000Y-51700000D01*
X92200000Y-51231000D01*
X92219685Y-51163961D01*
X92272489Y-51118206D01*
X92324000Y-51107000D01*
X92419777Y-51107000D01*
X92424204Y-51109556D01*
G37*
%TD.AperFunction*%
%TA.AperFunction,Conductor*%
G36*
X65927942Y-48390185D02*
G01*
X65973697Y-48442989D01*
X65983641Y-48512147D01*
X65954616Y-48575703D01*
X65948584Y-48582181D01*
X65045844Y-49484919D01*
X64984521Y-49518404D01*
X64914829Y-49513420D01*
X64858896Y-49471548D01*
X64843602Y-49444690D01*
X64771718Y-49271144D01*
X64771716Y-49271141D01*
X64723179Y-49191936D01*
X64640088Y-49056345D01*
X64640088Y-49056343D01*
X64603125Y-49013066D01*
X64476474Y-48864776D01*
X64286375Y-48702416D01*
X64284906Y-48701161D01*
X64284903Y-48701160D01*
X64120196Y-48600227D01*
X64073321Y-48548415D01*
X64061898Y-48479486D01*
X64089555Y-48415323D01*
X64147511Y-48376298D01*
X64184986Y-48370500D01*
X65860903Y-48370500D01*
X65927942Y-48390185D01*
G37*
%TD.AperFunction*%
%TA.AperFunction,Conductor*%
G36*
X46430000Y-47530000D02*
G01*
X47077828Y-47530000D01*
X47077844Y-47529999D01*
X47137372Y-47523598D01*
X47137379Y-47523596D01*
X47272086Y-47473354D01*
X47272093Y-47473350D01*
X47387187Y-47387190D01*
X47387190Y-47387187D01*
X47473350Y-47272093D01*
X47473354Y-47272086D01*
X47522422Y-47140529D01*
X47564293Y-47084595D01*
X47629757Y-47060178D01*
X47698030Y-47075030D01*
X47726285Y-47096181D01*
X47848599Y-47218495D01*
X47882542Y-47242262D01*
X48042165Y-47354032D01*
X48042167Y-47354033D01*
X48042170Y-47354035D01*
X48256337Y-47453903D01*
X48484592Y-47515063D01*
X48655319Y-47530000D01*
X48719999Y-47535659D01*
X48720000Y-47535659D01*
X48720001Y-47535659D01*
X48784681Y-47530000D01*
X48955408Y-47515063D01*
X49083757Y-47480672D01*
X49153606Y-47482335D01*
X49203531Y-47512766D01*
X50018583Y-48327819D01*
X50052068Y-48389142D01*
X50047084Y-48458834D01*
X50005212Y-48514767D01*
X49939748Y-48539184D01*
X49930902Y-48539500D01*
X46910097Y-48539500D01*
X46843058Y-48519815D01*
X46822416Y-48503181D01*
X45966319Y-47647084D01*
X45932834Y-47585761D01*
X45930000Y-47559403D01*
X45930000Y-46613012D01*
X45987007Y-46645925D01*
X46114174Y-46680000D01*
X46245826Y-46680000D01*
X46372993Y-46645925D01*
X46430000Y-46613012D01*
X46430000Y-47530000D01*
G37*
%TD.AperFunction*%
%TA.AperFunction,Conductor*%
G36*
X59130000Y-47569403D02*
G01*
X59110315Y-47636442D01*
X59093681Y-47657084D01*
X58967681Y-47783084D01*
X58906358Y-47816569D01*
X58836666Y-47811585D01*
X58792319Y-47783084D01*
X58666319Y-47657084D01*
X58632834Y-47595761D01*
X58630000Y-47569403D01*
X58630000Y-46613012D01*
X58687007Y-46645925D01*
X58814174Y-46680000D01*
X58945826Y-46680000D01*
X59072993Y-46645925D01*
X59130000Y-46613012D01*
X59130000Y-47569403D01*
G37*
%TD.AperFunction*%
%TD*%
M02*
