%TF.GenerationSoftware,KiCad,Pcbnew,8.0.4*%
%TF.CreationDate,2025-01-26T22:49:23-05:00*%
%TF.ProjectId,catkeeb_devboard,6361746b-6565-4625-9f64-6576626f6172,rev?*%
%TF.SameCoordinates,Original*%
%TF.FileFunction,Profile,NP*%
%FSLAX46Y46*%
G04 Gerber Fmt 4.6, Leading zero omitted, Abs format (unit mm)*
G04 Created by KiCad (PCBNEW 8.0.4) date 2025-01-26 22:49:23*
%MOMM*%
%LPD*%
G01*
G04 APERTURE LIST*
%TA.AperFunction,Profile*%
%ADD10C,0.000000*%
%TD*%
G04 APERTURE END LIST*
D10*
X97138459Y-44631018D02*
X97279811Y-44641767D01*
X97419108Y-44659468D01*
X97556175Y-44683946D01*
X97690838Y-44715026D01*
X97822920Y-44752533D01*
X97952249Y-44796293D01*
X98078647Y-44846131D01*
X98201942Y-44901871D01*
X98321957Y-44963340D01*
X98438518Y-45030361D01*
X98551450Y-45102760D01*
X98660578Y-45180362D01*
X98765727Y-45262993D01*
X98866723Y-45350477D01*
X98963390Y-45442640D01*
X99055553Y-45539306D01*
X99143038Y-45640301D01*
X99225669Y-45745450D01*
X99303272Y-45854578D01*
X99375672Y-45967510D01*
X99442694Y-46084071D01*
X99504164Y-46204086D01*
X99559905Y-46327381D01*
X99609743Y-46453781D01*
X99653504Y-46583110D01*
X99691012Y-46715193D01*
X99722093Y-46849857D01*
X99746571Y-46986926D01*
X99764272Y-47126225D01*
X99775021Y-47267579D01*
X99778643Y-47410813D01*
X99778643Y-62789190D01*
X99775021Y-62932421D01*
X99764272Y-63073773D01*
X99746571Y-63213070D01*
X99722093Y-63350137D01*
X99691012Y-63484800D01*
X99653504Y-63616882D01*
X99609743Y-63746211D01*
X99559905Y-63872609D01*
X99504164Y-63995904D01*
X99442694Y-64115919D01*
X99375672Y-64232480D01*
X99303272Y-64345412D01*
X99225669Y-64454540D01*
X99143038Y-64559689D01*
X99055553Y-64660685D01*
X98963390Y-64757352D01*
X98866723Y-64849515D01*
X98765727Y-64937000D01*
X98660578Y-65019631D01*
X98551450Y-65097234D01*
X98438518Y-65169634D01*
X98321957Y-65236656D01*
X98201942Y-65298125D01*
X98078647Y-65353867D01*
X97952249Y-65403705D01*
X97822920Y-65447466D01*
X97690838Y-65484974D01*
X97556175Y-65516055D01*
X97419108Y-65540533D01*
X97279811Y-65558234D01*
X97138459Y-65568983D01*
X96995228Y-65572605D01*
X37917212Y-65572605D01*
X37881403Y-65571700D01*
X37846064Y-65569012D01*
X37811240Y-65564587D01*
X37776973Y-65558468D01*
X37743307Y-65550698D01*
X37710286Y-65541322D01*
X37677953Y-65530382D01*
X37646354Y-65517923D01*
X37615530Y-65503988D01*
X37585526Y-65488622D01*
X37556386Y-65471867D01*
X37528153Y-65453767D01*
X37500871Y-65434367D01*
X37474584Y-65413710D01*
X37449335Y-65391839D01*
X37425168Y-65368799D01*
X37402128Y-65344633D01*
X37380257Y-65319384D01*
X37359599Y-65293097D01*
X37340198Y-65265815D01*
X37322099Y-65237582D01*
X37305343Y-65208442D01*
X37289976Y-65178438D01*
X37276041Y-65147615D01*
X37263582Y-65116014D01*
X37252642Y-65083682D01*
X37243265Y-65050661D01*
X37235495Y-65016994D01*
X37229375Y-64982726D01*
X37224950Y-64947901D01*
X37222263Y-64912562D01*
X37221357Y-64876752D01*
X37221357Y-45323251D01*
X37222263Y-45287442D01*
X37224950Y-45252103D01*
X37229375Y-45217279D01*
X37235495Y-45183012D01*
X37243265Y-45149346D01*
X37252642Y-45116325D01*
X37263582Y-45083992D01*
X37276041Y-45052393D01*
X37289976Y-45021569D01*
X37305343Y-44991565D01*
X37322098Y-44962425D01*
X37340198Y-44934192D01*
X37359599Y-44906910D01*
X37380256Y-44880623D01*
X37402127Y-44855374D01*
X37425168Y-44831207D01*
X37449335Y-44808167D01*
X37474583Y-44786296D01*
X37500871Y-44765638D01*
X37528152Y-44746237D01*
X37556385Y-44728138D01*
X37585526Y-44711382D01*
X37615530Y-44696015D01*
X37646353Y-44682080D01*
X37677953Y-44669621D01*
X37710286Y-44658681D01*
X37743307Y-44649304D01*
X37776972Y-44641534D01*
X37811240Y-44635414D01*
X37846064Y-44630989D01*
X37881403Y-44628302D01*
X37917212Y-44627396D01*
X96995228Y-44627396D01*
X97138459Y-44631018D01*
M02*
