M48
; DRILL file {KiCad 8.0.4} date 2025-01-25T23:18:46-0500
; FORMAT={-:-/ absolute / inch / decimal}
; #@! TF.CreationDate,2025-01-25T23:18:46-05:00
; #@! TF.GenerationSoftware,Kicad,Pcbnew,8.0.4
; #@! TF.FileFunction,Plated,1,2,PTH
FMAT,2
INCH
; #@! TA.AperFunction,Plated,PTH,ViaDrill
T1C0.0118
; #@! TA.AperFunction,Plated,PTH,ComponentDrill
T2C0.0236
; #@! TA.AperFunction,Plated,PTH,ComponentDrill
T3C0.0394
; #@! TA.AperFunction,Plated,PTH,ComponentDrill
T4C0.0591
%
G90
G05
T1
X1.7673Y-2.0488
X1.7717Y-2.3228
X1.8059Y-2.276
X1.8197Y-2.0472
X1.8504Y-1.8898
X1.9126Y-2.0461
X1.9291Y-1.8898
X1.9441Y-2.0106
X1.9638Y-2.1535
X1.9906Y-2.4062
X2.0201Y-2.4299
X2.024Y-2.1244
X2.0609Y-2.3396
X2.0752Y-2.3724
X2.1091Y-1.9764
X2.1118Y-2.3045
X2.1119Y-2.3759
X2.1334Y-2.1464
X2.1441Y-2.0114
X2.1453Y-2.3022
X2.1461Y-2.3681
X2.15Y-2.1827
X2.1807Y-2.1276
X2.1904Y-2.2458
X2.2122Y-2.0689
X2.2594Y-2.3681
X2.2767Y-2.2877
X2.2839Y-2.0854
X2.3189Y-1.874
X2.3328Y-2.2335
X2.4248Y-1.9984
X2.426Y-1.8957
X2.448Y-2.111
X2.4622Y-2.313
X2.4783Y-2.1984
X2.4941Y-2.3173
X2.5685Y-1.9224
X2.626Y-2.0425
X2.6469Y-2.3984
X2.6772Y-2.0177
X2.6969Y-2.126
X2.6969Y-2.185
X2.7106Y-2.237
X2.7165Y-1.9783
X2.7343Y-2.3342
X2.7492Y-2.3984
X2.7882Y-2.2362
X2.7953Y-2.0079
X2.7953Y-2.126
X2.8346Y-2.0669
X2.8916Y-2.3988
X2.9528Y-2.0276
X2.9528Y-2.0866
X2.9693Y-2.163
X3.0315Y-2.0276
X3.0315Y-2.0866
X3.1102Y-2.0276
X3.1102Y-2.0866
X3.1106Y-2.3035
X3.1118Y-2.3508
X3.1538Y-2.2805
X3.189Y-2.0276
X3.189Y-2.0866
X3.2469Y-2.3744
X3.2794Y-2.2525
X3.3268Y-1.9291
X3.3268Y-2.0669
X3.3465Y-2.4409
X3.4055Y-1.9291
X3.4055Y-2.0669
X3.4252Y-2.4409
X3.4339Y-2.3042
X3.4449Y-2.1457
X3.4843Y-1.9291
X3.5244Y-2.2835
X3.5307Y-2.3429
X3.563Y-1.9291
X3.563Y-2.4409
X3.75Y-2.3386
X3.752Y-2.002
T3
X1.6181Y-1.8181
X1.6181Y-2.5181
X1.7181Y-1.8181
X1.7181Y-2.5181
X1.8181Y-1.8181
X1.8181Y-2.5181
X1.9181Y-1.8181
X1.9181Y-2.5181
X2.0181Y-1.8181
X2.0181Y-2.5181
X2.1181Y-1.8181
X2.1181Y-2.5181
X2.2181Y-1.8181
X2.2181Y-2.5181
X2.3181Y-1.8181
X2.3181Y-2.5181
X2.4181Y-1.8181
X2.4181Y-2.5181
X2.5181Y-1.8181
X2.5181Y-2.5181
X2.6181Y-1.8181
X2.6181Y-2.5181
X2.7181Y-1.8181
X2.7181Y-2.5181
X2.8181Y-1.8181
X2.8181Y-2.5181
X2.9181Y-1.8181
X2.9181Y-2.5181
X3.0181Y-1.8181
X3.0181Y-2.5181
X3.1181Y-1.8181
X3.1181Y-2.5181
X3.2181Y-1.8181
X3.2181Y-2.5181
X3.3181Y-1.8181
X3.3181Y-2.5181
X3.4181Y-1.8181
X3.4181Y-2.5181
X3.5181Y-1.8181
X3.5181Y-2.5181
T4
X1.7437Y-1.9685
X1.9937Y-2.0685
X2.4937Y-1.9685
X2.7437Y-2.0685
X3.2437Y-1.9685
X3.4937Y-2.0685
T2
G00X3.6433Y-2.0012
M15
G01X3.6866Y-2.0012
M16
G05
G00X3.6433Y-2.3413
M15
G01X3.6866Y-2.3413
M16
G05
G00X3.8177Y-2.0012
M15
G01X3.8413Y-2.0012
M16
G05
G00X3.8177Y-2.3413
M15
G01X3.8413Y-2.3413
M16
G05
M30
