%TF.GenerationSoftware,KiCad,Pcbnew,8.0.4*%
%TF.CreationDate,2025-01-25T23:18:52-05:00*%
%TF.ProjectId,catkeeb_devboard,6361746b-6565-4625-9f64-6576626f6172,rev?*%
%TF.SameCoordinates,Original*%
%TF.FileFunction,Paste,Top*%
%TF.FilePolarity,Positive*%
%FSLAX46Y46*%
G04 Gerber Fmt 4.6, Leading zero omitted, Abs format (unit mm)*
G04 Created by KiCad (PCBNEW 8.0.4) date 2025-01-25 23:18:52*
%MOMM*%
%LPD*%
G01*
G04 APERTURE LIST*
G04 Aperture macros list*
%AMRoundRect*
0 Rectangle with rounded corners*
0 $1 Rounding radius*
0 $2 $3 $4 $5 $6 $7 $8 $9 X,Y pos of 4 corners*
0 Add a 4 corners polygon primitive as box body*
4,1,4,$2,$3,$4,$5,$6,$7,$8,$9,$2,$3,0*
0 Add four circle primitives for the rounded corners*
1,1,$1+$1,$2,$3*
1,1,$1+$1,$4,$5*
1,1,$1+$1,$6,$7*
1,1,$1+$1,$8,$9*
0 Add four rect primitives between the rounded corners*
20,1,$1+$1,$2,$3,$4,$5,0*
20,1,$1+$1,$4,$5,$6,$7,0*
20,1,$1+$1,$6,$7,$8,$9,0*
20,1,$1+$1,$8,$9,$2,$3,0*%
G04 Aperture macros list end*
%ADD10RoundRect,0.140000X-0.140000X-0.170000X0.140000X-0.170000X0.140000X0.170000X-0.140000X0.170000X0*%
%ADD11RoundRect,0.135000X-0.185000X0.135000X-0.185000X-0.135000X0.185000X-0.135000X0.185000X0.135000X0*%
%ADD12R,1.000000X0.750000*%
%ADD13RoundRect,0.140000X-0.021213X0.219203X-0.219203X0.021213X0.021213X-0.219203X0.219203X-0.021213X0*%
%ADD14RoundRect,0.135000X0.185000X-0.135000X0.185000X0.135000X-0.185000X0.135000X-0.185000X-0.135000X0*%
%ADD15RoundRect,0.249999X0.000000X0.558616X-0.558616X0.000000X0.000000X-0.558616X0.558616X0.000000X0*%
%ADD16RoundRect,0.050000X0.238649X0.309359X-0.309359X-0.238649X-0.238649X-0.309359X0.309359X0.238649X0*%
%ADD17RoundRect,0.050000X-0.238649X0.309359X-0.309359X0.238649X0.238649X-0.309359X0.309359X-0.238649X0*%
%ADD18RoundRect,0.140000X0.219203X0.021213X0.021213X0.219203X-0.219203X-0.021213X-0.021213X-0.219203X0*%
%ADD19RoundRect,0.135000X-0.135000X-0.185000X0.135000X-0.185000X0.135000X0.185000X-0.135000X0.185000X0*%
%ADD20RoundRect,0.140000X-0.170000X0.140000X-0.170000X-0.140000X0.170000X-0.140000X0.170000X0.140000X0*%
%ADD21RoundRect,0.243750X-0.243750X-0.456250X0.243750X-0.456250X0.243750X0.456250X-0.243750X0.456250X0*%
%ADD22RoundRect,0.140000X0.170000X-0.140000X0.170000X0.140000X-0.170000X0.140000X-0.170000X-0.140000X0*%
%ADD23RoundRect,0.150000X0.500000X-0.150000X0.500000X0.150000X-0.500000X0.150000X-0.500000X-0.150000X0*%
%ADD24RoundRect,0.075000X0.575000X-0.075000X0.575000X0.075000X-0.575000X0.075000X-0.575000X-0.075000X0*%
%ADD25RoundRect,0.135000X-0.226274X-0.035355X-0.035355X-0.226274X0.226274X0.035355X0.035355X0.226274X0*%
%ADD26RoundRect,0.135000X0.135000X0.185000X-0.135000X0.185000X-0.135000X-0.185000X0.135000X-0.185000X0*%
%ADD27RoundRect,0.250000X-0.435000X-0.555000X0.435000X-0.555000X0.435000X0.555000X-0.435000X0.555000X0*%
%ADD28RoundRect,0.125000X-0.262500X-0.125000X0.262500X-0.125000X0.262500X0.125000X-0.262500X0.125000X0*%
%ADD29RoundRect,0.243750X-0.456250X0.243750X-0.456250X-0.243750X0.456250X-0.243750X0.456250X0.243750X0*%
%ADD30R,1.400000X1.200000*%
%ADD31RoundRect,0.150000X0.150000X-0.512500X0.150000X0.512500X-0.150000X0.512500X-0.150000X-0.512500X0*%
%ADD32RoundRect,0.140000X0.021213X-0.219203X0.219203X-0.021213X-0.021213X0.219203X-0.219203X0.021213X0*%
%ADD33RoundRect,0.140000X0.140000X0.170000X-0.140000X0.170000X-0.140000X-0.170000X0.140000X-0.170000X0*%
G04 APERTURE END LIST*
D10*
%TO.C,C10*%
X67950000Y-59300000D03*
X68910000Y-59300000D03*
%TD*%
D11*
%TO.C,R7*%
X90690000Y-56980000D03*
X90690000Y-58000000D03*
%TD*%
D12*
%TO.C,SW1*%
X78520000Y-54230000D03*
X72520000Y-54230000D03*
X78520000Y-50480000D03*
X72520000Y-50480000D03*
%TD*%
D13*
%TO.C,C4*%
X52129411Y-57930589D03*
X51450589Y-58609411D03*
%TD*%
D14*
%TO.C,R6*%
X90770000Y-51490000D03*
X90770000Y-50470000D03*
%TD*%
D10*
%TO.C,C2*%
X67960000Y-60320000D03*
X68920000Y-60320000D03*
%TD*%
D15*
%TO.C,U1*%
X58451371Y-55081371D03*
X57320000Y-53950000D03*
X57320000Y-56212742D03*
X56188629Y-55081371D03*
D16*
X61589157Y-54489169D03*
X61306314Y-54206326D03*
X61023472Y-53923484D03*
X60740629Y-53640641D03*
X60457786Y-53357798D03*
X60174944Y-53074956D03*
X59892101Y-52792113D03*
X59609258Y-52509270D03*
X59326415Y-52226427D03*
X59043573Y-51943585D03*
X58760730Y-51660742D03*
X58477887Y-51377899D03*
X58195045Y-51095057D03*
X57912202Y-50812214D03*
D17*
X56727798Y-50812214D03*
X56444955Y-51095057D03*
X56162113Y-51377899D03*
X55879270Y-51660742D03*
X55596427Y-51943585D03*
X55313585Y-52226427D03*
X55030742Y-52509270D03*
X54747899Y-52792113D03*
X54465056Y-53074956D03*
X54182214Y-53357798D03*
X53899371Y-53640641D03*
X53616528Y-53923484D03*
X53333686Y-54206326D03*
X53050843Y-54489169D03*
D16*
X53050843Y-55673573D03*
X53333686Y-55956416D03*
X53616528Y-56239258D03*
X53899371Y-56522101D03*
X54182214Y-56804944D03*
X54465056Y-57087786D03*
X54747899Y-57370629D03*
X55030742Y-57653472D03*
X55313585Y-57936315D03*
X55596427Y-58219157D03*
X55879270Y-58502000D03*
X56162113Y-58784843D03*
X56444955Y-59067685D03*
X56727798Y-59350528D03*
D17*
X57912202Y-59350528D03*
X58195045Y-59067685D03*
X58477887Y-58784843D03*
X58760730Y-58502000D03*
X59043573Y-58219157D03*
X59326415Y-57936315D03*
X59609258Y-57653472D03*
X59892101Y-57370629D03*
X60174944Y-57087786D03*
X60457786Y-56804944D03*
X60740629Y-56522101D03*
X61023472Y-56239258D03*
X61306314Y-55956416D03*
X61589157Y-55673573D03*
%TD*%
D18*
%TO.C,C5*%
X52999411Y-51009411D03*
X52320589Y-50330589D03*
%TD*%
D13*
%TO.C,C1*%
X58259411Y-60830589D03*
X57580589Y-61509411D03*
%TD*%
D11*
%TO.C,R3*%
X71740000Y-56100000D03*
X71740000Y-57120000D03*
%TD*%
D19*
%TO.C,R5*%
X43170000Y-56990000D03*
X44190000Y-56990000D03*
%TD*%
D20*
%TO.C,C15*%
X45520000Y-59690000D03*
X45520000Y-60650000D03*
%TD*%
D21*
%TO.C,D7*%
X83492500Y-60550000D03*
X85367500Y-60550000D03*
%TD*%
D22*
%TO.C,C13*%
X90690000Y-60550000D03*
X90690000Y-59590000D03*
%TD*%
D23*
%TO.C,J1*%
X92450000Y-58350000D03*
X92450000Y-57550000D03*
D24*
X92450000Y-56400000D03*
X92450000Y-55400000D03*
X92450000Y-54900000D03*
X92450000Y-53900000D03*
D23*
X92450000Y-52750000D03*
X92450000Y-51950000D03*
X92450000Y-51950000D03*
X92450000Y-52750000D03*
D24*
X92450000Y-53400000D03*
X92450000Y-54400000D03*
X92450000Y-55900000D03*
X92450000Y-56900000D03*
D23*
X92450000Y-57550000D03*
X92450000Y-58350000D03*
%TD*%
D10*
%TO.C,C9*%
X58960000Y-61680000D03*
X59920000Y-61680000D03*
%TD*%
D25*
%TO.C,R1*%
X61439376Y-60079376D03*
X62160624Y-60800624D03*
%TD*%
D26*
%TO.C,R4*%
X75940000Y-55712500D03*
X74920000Y-55712500D03*
%TD*%
D18*
%TO.C,C11*%
X52319411Y-51689411D03*
X51640589Y-51010589D03*
%TD*%
D27*
%TO.C,U3*%
X74797500Y-58077500D03*
X74797500Y-60077500D03*
X76497500Y-58077500D03*
X76497500Y-60077500D03*
D28*
X72985000Y-57172500D03*
X72985000Y-58442500D03*
X72985000Y-59712500D03*
X72985000Y-60982500D03*
X78310000Y-60982500D03*
X78310000Y-59712500D03*
X78310000Y-58442500D03*
X78310000Y-57172500D03*
%TD*%
D13*
%TO.C,C8*%
X56749411Y-61010589D03*
X56070589Y-61689411D03*
%TD*%
D29*
%TO.C,D5*%
X81150000Y-54102500D03*
X81150000Y-55977500D03*
%TD*%
D25*
%TO.C,R2*%
X60739376Y-60769376D03*
X61460624Y-61490624D03*
%TD*%
D30*
%TO.C,Y1*%
X41620000Y-60250000D03*
X43820000Y-60250000D03*
X43820000Y-58550000D03*
X41620000Y-58550000D03*
%TD*%
D31*
%TO.C,U2*%
X87407500Y-60807500D03*
X89307500Y-60807500D03*
X88357500Y-58532500D03*
%TD*%
D22*
%TO.C,C14*%
X79550000Y-57250000D03*
X79550000Y-56290000D03*
%TD*%
D10*
%TO.C,C12*%
X88550000Y-57010000D03*
X89510000Y-57010000D03*
%TD*%
D14*
%TO.C,R8*%
X90740000Y-53820000D03*
X90740000Y-52800000D03*
%TD*%
D13*
%TO.C,C3*%
X55779411Y-60610589D03*
X55100589Y-61289411D03*
%TD*%
D32*
%TO.C,C6*%
X60200589Y-49309411D03*
X60879411Y-48630589D03*
%TD*%
D10*
%TO.C,C7*%
X69190000Y-56790000D03*
X70150000Y-56790000D03*
%TD*%
D33*
%TO.C,C17*%
X68910000Y-61350000D03*
X67950000Y-61350000D03*
%TD*%
%TO.C,C16*%
X42090000Y-56980000D03*
X41130000Y-56980000D03*
%TD*%
M02*
