%TF.GenerationSoftware,KiCad,Pcbnew,8.0.4*%
%TF.CreationDate,2025-01-25T23:18:53-05:00*%
%TF.ProjectId,catkeeb_devboard,6361746b-6565-4625-9f64-6576626f6172,rev?*%
%TF.SameCoordinates,Original*%
%TF.FileFunction,Soldermask,Bot*%
%TF.FilePolarity,Negative*%
%FSLAX46Y46*%
G04 Gerber Fmt 4.6, Leading zero omitted, Abs format (unit mm)*
G04 Created by KiCad (PCBNEW 8.0.4) date 2025-01-25 23:18:53*
%MOMM*%
%LPD*%
G01*
G04 APERTURE LIST*
%ADD10C,3.200000*%
%ADD11C,1.700000*%
%ADD12O,1.700000X1.700000*%
%ADD13R,1.700000X1.700000*%
%ADD14C,0.650000*%
%ADD15O,2.100000X1.000000*%
%ADD16O,1.600000X1.000000*%
%ADD17C,4.000000*%
%ADD18C,2.200000*%
G04 APERTURE END LIST*
D10*
%TO.C,REF\u002A\u002A*%
X96550000Y-62600000D03*
%TD*%
%TO.C,REF\u002A\u002A*%
X96550000Y-47650000D03*
%TD*%
D11*
%TO.C,J6*%
X89360000Y-63960000D03*
D12*
X86820000Y-63960000D03*
D13*
X84280000Y-63960000D03*
D12*
X81740000Y-63960000D03*
X79200000Y-63960000D03*
X76660000Y-63960000D03*
X74120000Y-63960000D03*
D13*
X71580000Y-63960000D03*
D12*
X69040000Y-63960000D03*
X66500000Y-63960000D03*
X63960000Y-63960000D03*
X61420000Y-63960000D03*
D13*
X58880000Y-63960000D03*
D12*
X56340000Y-63960000D03*
X53800000Y-63960000D03*
X51260000Y-63960000D03*
X48720000Y-63960000D03*
D13*
X46180000Y-63960000D03*
D12*
X43640000Y-63960000D03*
X41100000Y-63960000D03*
%TD*%
%TO.C,J2*%
X41100000Y-46180000D03*
X43640000Y-46180000D03*
D13*
X46180000Y-46180000D03*
D12*
X48720000Y-46180000D03*
X51260000Y-46180000D03*
X53800000Y-46180000D03*
X56340000Y-46180000D03*
D13*
X58880000Y-46180000D03*
D12*
X61420000Y-46180000D03*
X63960000Y-46180000D03*
X66500000Y-46180000D03*
X69040000Y-46180000D03*
D13*
X71580000Y-46180000D03*
D12*
X74120000Y-46180000D03*
X76660000Y-46180000D03*
X79200000Y-46180000D03*
X81740000Y-46180000D03*
D13*
X84280000Y-46180000D03*
D12*
X86820000Y-46180000D03*
D11*
X89360000Y-46180000D03*
%TD*%
D14*
%TO.C,J1*%
X93590000Y-58040000D03*
X93590000Y-52260000D03*
D15*
X93090000Y-59470000D03*
D16*
X97270000Y-59470000D03*
D15*
X93090000Y-50830000D03*
D16*
X97270000Y-50830000D03*
%TD*%
D17*
%TO.C,MX2*%
X65881250Y-55080000D03*
D18*
X63341250Y-50000000D03*
X69691250Y-52540000D03*
%TD*%
D17*
%TO.C,MX3*%
X46831250Y-55080000D03*
D18*
X44291250Y-50000000D03*
X50641250Y-52540000D03*
%TD*%
D17*
%TO.C,MX1*%
X84931250Y-55080000D03*
D18*
X82391250Y-50000000D03*
X88741250Y-52540000D03*
%TD*%
M02*
